<?xml version="1.0" standalone="no"?>
<!DOCTYPE svg PUBLIC "-//W3C//DTD SVG 1.1//EN" "http://www.w3.org/Graphics/SVG/1.1/DTD/svg11.dtd" >
<svg xmlns="http://www.w3.org/2000/svg">
<metadata>
This is a custom SVG webfont generated by Font Squirrel.
</metadata>
<defs>
<font id="webfontSzGmlskh" horiz-adv-x="480" >
<font-face units-per-em="1000" ascent="800" descent="-200" />
<missing-glyph horiz-adv-x="230" />
<glyph unicode=" "  horiz-adv-x="230" />
<glyph unicode="&#x09;" horiz-adv-x="230" />
<glyph unicode="&#xa0;" horiz-adv-x="230" />
<glyph unicode="!" horiz-adv-x="269" d="M134 -12q-24 0 -40.5 16.5t-16.5 42.5q0 25 16 42t41 17t41.5 -16.5t16.5 -42.5q0 -27 -16 -43t-42 -16zM134 665q50 0 50 -27l-6 -80l-20 -187q-11 -98 -11 -180q-5 -5 -13 -5t-13 5q0 81 -11 189q-14 120 -20 178l-6 80q0 15 12 21t38 6z" />
<glyph unicode="&#x22;" horiz-adv-x="350" d="M254 710q45 0 45 -23l-5 -41l-28 -193q-4 -4 -12 -4t-12 4l-28 192l-5 42q0 23 45 23zM96 710q45 0 45 -23l-5 -41l-28 -193q-4 -4 -12 -4t-12 4l-28 192l-5 42q0 23 45 23z" />
<glyph unicode="#" d="M322 399h-118l-32 -153h118zM462 399h-104l-32 -153h100l-10 -55h-102l-40 -191h-36l40 191h-119l-40 -191h-37l40 191h-112l10 55h114l33 153h-110l8 55h113l35 170h37l-35 -170h118l35 170h37l-36 -170h101z" />
<glyph unicode="$" d="M265 270v-238q49 10 74 38.5t25 70.5t-15 67q-20 34 -75 58zM230 377v217q-50 -6 -74.5 -36t-24.5 -71q0 -35 28 -64q24 -25 71 -46zM411 480l-25 -3q-15 48 -36 73q-30 36 -85 44v-233l38 -15q59 -24 91 -59q42 -45 42 -109q0 -70 -45.5 -117.5t-125.5 -57.5v-84h-35v81 q-44 0 -83.5 9.5t-74.5 30.5q-10 42 -16 73q-7 28 -13 57l24 3q20 -54 50 -88q47 -54 113 -54v255l-42 19q-55 25 -84 57q-37 41 -37 96q0 62 40 106q44 48 123 57v76h35v-73q49 0 90 -12l34 -8z" />
<glyph unicode="%" horiz-adv-x="844" d="M799 182q0 -70 -36 -126q-43 -68 -117 -68t-117 67q-36 56 -36 127t36 127q43 67 117 67t117 -67q36 -56 36 -127zM727 182q0 61 -13 102q-20 64 -67 64q-46 0 -67 -62q-15 -45 -15 -104q0 -61 14 -103q21 -63 68 -63q56 0 73 90q7 37 7 76zM351 442q0 -70 -36 -126 q-43 -68 -117 -68t-117 67q-36 56 -36 127t36 127q43 67 117 67t117 -67q36 -56 36 -127zM279 442q0 61 -13 102q-20 64 -67 64q-46 0 -67 -62q-15 -45 -15 -104q0 -61 14 -103q21 -63 68 -63q56 0 73 90q7 37 7 76zM634 627l-405 -667l-32 23l404 665z" />
<glyph unicode="&#x26;" horiz-adv-x="702" d="M242 339q-58 -36 -83 -73t-25 -83q0 -65 46 -102q40 -32 93 -32q51 0 96 33q35 26 74 77q-49 50 -91 89q-49 45 -110 91zM482 415h224v-23q-51 0 -74 -16q-13 -9 -42 -50l-32 -46l-50 -76q49 -54 90 -104q56 -69 79 -113l-6 -8q-37 4 -72.5 17.5t-45.5 24.5l-46 61 q-21 27 -44 53q-58 -80 -109 -115t-107 -35q-93 0 -147 57q-48 50 -48 117q0 50 29 91q33 46 135 106q-48 35 -70 67t-22 70q0 68 47.5 113.5t112.5 45.5q61 0 104 -39t43 -97q0 -26 -13 -48.5t-30 -35.5q-31 -22 -78 -50q40 -30 97 -81q49 -43 79 -74q24 35 51 91 q18 36 18 48q0 19 -41 23l-32 3v23zM271 621q-32 0 -55 -26t-23 -68q0 -35 24 -66.5t70 -61.5q36 24 53.5 52.5t17.5 67.5t-20 68q-24 34 -67 34z" />
<glyph unicode="'" horiz-adv-x="214" d="M107 710q45 0 45 -23l-5 -41l-28 -193q-4 -4 -12 -4t-12 4l-28 192l-5 42q0 23 45 23z" />
<glyph unicode="(" horiz-adv-x="370" d="M147 271q0 -134 41.5 -248t117.5 -172l-13 -19q-106 70 -159 188q-49 109 -49 251q0 140 49 250q53 119 159 189l13 -20q-76 -57 -117.5 -170.5t-41.5 -248.5z" />
<glyph unicode=")" horiz-adv-x="370" d="M223 271q0 135 -40 245q-43 117 -119 174l13 20q106 -70 159 -188q49 -109 49 -251q0 -140 -49 -250q-53 -119 -159 -189l-13 19q76 58 119 175q40 111 40 245z" />
<glyph unicode="*" horiz-adv-x="432" d="M268 319l-76 139l-130 -81l-13 19l110 99l-113 111l15 17l128 -86l64 142l19 -6l-29 -148l144 -2v-23l-142 -25l42 -148z" />
<glyph unicode="+" horiz-adv-x="617" d="M336 0h-54v254h-232v45h232v230h54v-230h231v-45h-231v-254z" />
<glyph unicode="," horiz-adv-x="240" d="M58 -128l-10 21q41 22 61 46.5t20 56.5q0 29 -18.5 49.5t-39.5 25t-21 24.5q0 18 15 31t34 13q33 0 62 -30q34 -35 34 -85q0 -56 -44 -98q-37 -35 -93 -54z" />
<glyph unicode="-" horiz-adv-x="365" d="M60 255h245v-57h-245v57z" />
<glyph unicode="." horiz-adv-x="240" d="M120 -12q-26 0 -42.5 16.5t-16.5 44.5q0 26 17 43t42 17q26 0 43 -17t17 -43q0 -27 -17 -44t-43 -17z" />
<glyph unicode="/" horiz-adv-x="320" d="M77 -45h-57l213 710h57z" />
<glyph unicode="0" d="M240 18q63 0 93 95q24 76 24 199q0 125 -23 199q-30 95 -94 95t-94 -95q-24 -76 -24 -199q0 -126 23 -199q30 -95 95 -95zM240 636q104 0 158 -107q45 -89 45 -217q0 -130 -44 -217q-54 -107 -159 -107q-104 0 -159 107q-45 88 -45 217t45 217q54 107 159 107z" />
<glyph unicode="1" d="M114 564v20q37 9 61 16q55 15 112 36v-546q0 -44 15 -55.5t80 -11.5v-23h-268v23q65 0 80 11.5t15 55.5v430q0 27 -4.5 34.5t-21.5 7.5z" />
<glyph unicode="2" d="M403 0h-371v13l101 110l58 65q60 71 86 115q43 72 43 134q0 65 -33 102t-93 37q-42 0 -79 -33q-14 -13 -51 -60l-19 16l55 80q22 25 57.5 41t77.5 16q67 0 115.5 -45.5t48.5 -118.5q0 -62 -34 -122q-27 -48 -99 -128l-138 -153h193q43 0 55 7q17 10 34 51l25 -7z" />
<glyph unicode="3" d="M150 -12q-28 0 -52.5 10.5t-41.5 26.5q-10 9 -10 22q0 7 2.5 13t7.5 13.5t12 12.5t15 5q6 0 17 -7q26 -22 42 -30q31 -16 68 -16q49 0 86 40q42 46 42 124q0 74 -41 110q-34 30 -92 30q-21 0 -37 -4t-37 -11l-6 23q90 36 127 65q46 36 46 81q0 43 -26.5 66.5t-68.5 23.5 q-37 0 -71 -28q-25 -21 -45 -55l-20 16l41 65q22 23 54.5 37.5t70.5 14.5q67 0 106.5 -34.5t39.5 -90.5q0 -36 -29 -63q-18 -17 -81 -53q68 -1 112 -49q40 -44 40 -102q0 -120 -108 -196q-86 -60 -163 -60z" />
<glyph unicode="4" d="M23 176v27l95 145l96 143l96 139h44v-407h96v-47h-96v-86q0 -43 13.5 -55t71.5 -12v-23h-257v23q65 0 80 11.5t15 55.5v86h-254zM87 223h190v304q-106 -160 -190 -304z" />
<glyph unicode="5" d="M115 624h284l-14 -69h-240l-25 -172q30 11 62 19t52 8q92 0 146 -56q48 -50 48 -119q0 -51 -20.5 -93t-65.5 -81q-84 -73 -187 -73q-30 0 -54.5 10t-41.5 27q-10 9 -10 21q0 3 2.5 11.5t7.5 16t12 12.5t15 5q6 0 17 -7q25 -20 44 -30q32 -16 71 -16q60 0 95 45t35 110 q0 73 -40 114q-44 45 -128 45q-26 0 -57 -8q-31 -10 -40 -12z" />
<glyph unicode="6" d="M422 642l5 -25q-24 -4 -54 -13.5t-56 -21.5q-59 -28 -102 -77q-58 -67 -77 -161l66 33q16 7 30 11t31 4q79 0 129 -53t50 -131q0 -93 -57 -156.5t-149 -63.5q-85 0 -142 67.5t-57 181.5q0 150 88 255q68 81 166 117q57 21 129 33zM257 18q58 0 84 51q20 39 20 104 q0 71 -31 116q-35 52 -101 52q-27 0 -52.5 -7.5t-44.5 -19.5q-4 -16 -5 -34.5t-1 -49.5q0 -94 35 -153t96 -59z" />
<glyph unicode="7" d="M69 624h375l7 -11q-145 -309 -270 -615l-79 -10l-5 10l152 280q76 147 136 277h-222q-48 0 -60 -10t-26 -57h-24q5 29 10 76.5t6 59.5z" />
<glyph unicode="8" d="M237 606q-46 0 -71 -34q-21 -28 -21 -69q0 -49 39 -84q25 -22 87 -54q29 22 45.5 52.5t16.5 78.5q0 52 -28 81t-68 29zM248 18q48 0 78 33t30 92q0 43 -27 79q-31 42 -115 85q-85 -53 -85 -148q0 -65 34 -103t85 -38zM237 -12q-82 0 -134.5 44t-52.5 123q0 37 13 64 q9 19 29 41q8 9 37.5 28t58.5 33q-54 28 -83 63q-33 40 -33 87q0 66 48.5 115.5t126.5 49.5q70 0 115 -41t45 -102q0 -43 -27 -78q-12 -14 -85 -64q66 -37 95 -70q40 -45 40 -104q0 -86 -65 -141q-57 -48 -128 -48z" />
<glyph unicode="9" d="M66 -15l-3 21q114 25 186.5 98.5t97.5 195.5l-69 -40q-15 -8 -31 -12t-31 -4q-80 0 -128 51t-48 132q0 78 52 139q59 70 151 70q90 0 145 -74q52 -70 52 -176q0 -129 -64.5 -228t-169.5 -142q-39 -16 -76.5 -23.5t-63.5 -7.5zM229 606q-55 0 -84 -50q-23 -40 -23 -92 q0 -71 36 -118t97 -47q24 0 51 8.5t43 20.5q2 11 3 28.5t1 31.5q0 82 -24 140q-33 78 -100 78z" />
<glyph unicode=":" horiz-adv-x="240" d="M120 -12q-26 0 -42.5 16.5t-16.5 44.5q0 26 17 43t42 17q26 0 43 -17t17 -43q0 -27 -17 -44t-43 -17zM120 313q-26 0 -42.5 16.5t-16.5 44.5q0 26 17 43t42 17q26 0 43 -17t17 -43q0 -27 -17 -44t-43 -17z" />
<glyph unicode=";" horiz-adv-x="240" d="M120 313q-26 0 -42.5 16.5t-16.5 44.5q0 26 17 43t42 17q26 0 43 -17t17 -43q0 -27 -17 -44t-43 -17zM58 -128l-10 21q41 22 61 46.5t20 56.5q0 29 -18.5 49.5t-39.5 25t-21 24.5q0 18 15 31t34 13q33 0 62 -30q34 -35 34 -85q0 -56 -44 -98q-37 -35 -93 -54z" />
<glyph unicode="&#x3c;" horiz-adv-x="617" d="M60 253v45l497 253v-48l-440 -226l440 -229v-48z" />
<glyph unicode="=" horiz-adv-x="617" d="M567 200v-45h-517v45h517zM567 398v-45h-517v45h517z" />
<glyph unicode="&#x3e;" horiz-adv-x="617" d="M557 298v-45l-497 -253v48l440 226l-440 229v48z" />
<glyph unicode="?" horiz-adv-x="342" d="M142 665q59 0 107 -50t48 -114q0 -27 -9 -45t-35 -41q-42 -32 -65 -52q-43 -38 -43 -68q0 -24 13 -46q9 -15 35 -43l-15 -17q-34 14 -67 49q-39 42 -39 80q0 25 17 50t61 61q49 40 58 49q35 36 35 67q0 27 -17 43t-43 16q-30 0 -57 -14l-46 -31q-9 0 -23 12t-14 26 q0 16 19.5 32t43.5 26t36 10zM158 -12q-24 0 -40.5 16.5t-16.5 42.5q0 25 16 42t41 17t41.5 -16.5t16.5 -42.5q0 -27 -16 -43t-42 -16z" />
<glyph unicode="@" horiz-adv-x="744" d="M445 333q10 33 17 63.5t14 64.5q-20 9 -58 9q-33 0 -60 -30q-22 -25 -44 -83t-22 -108q0 -23 4.5 -30.5t15.5 -7.5q16 0 50 29q40 35 83 93zM539 52l7 -22q-43 -24 -89 -34.5t-97 -10.5q-134 0 -220 73q-95 80 -95 224q0 170 123 281q113 102 262 102q128 0 206 -79 q73 -74 73 -181q0 -104 -68.5 -176.5t-175.5 -72.5q-24 0 -33.5 8.5t-9.5 24.5q0 14 5 32l17 74q-27 -42 -90.5 -90.5t-91.5 -48.5q-17 0 -29 18t-12 54q0 40 18 92q23 66 65 110q35 37 74 56t86 19q11 0 23.5 -3t22 -5.5t16.5 -3.5t16 -1q-23 -100 -48 -230 q-4 -20 -5.5 -30t-1.5 -18q0 -22 23 -22q58 0 103 58q50 64 50 160q0 97 -65.5 156.5t-166.5 59.5q-139 0 -227 -94t-88 -237q0 -109 55 -181q71 -93 217 -93q48 0 84.5 8.5t66.5 22.5z" />
<glyph unicode="A" horiz-adv-x="645" d="M423 0v23l32 4q36 4 36 23q0 8 -5.5 25.5t-23.5 64.5l-40 107h-203l-50 -146q-9 -29 -9 -44q0 -27 44 -31l30 -3v-23h-214v23q49 5 65.5 20.5t42.5 81.5l206 531l23 9l71 -190l46 -126l44 -121l40 -109q24 -63 42.5 -79.5t64.5 -16.5v-23h-242zM232 285h177l-88 246z" />
<glyph unicode="B" horiz-adv-x="586" d="M40 650h268q51 0 86 -8.5t60 -26.5q52 -37 52 -110q0 -59 -47 -100q-35 -31 -84 -43q76 -13 121 -52q52 -46 52 -118q0 -53 -23.5 -90.5t-69.5 -63.5q-35 -19 -84.5 -28.5t-106.5 -9.5h-230v23q62 0 77 20t15 102v360q0 83 -13.5 102.5t-72.5 19.5v23zM210 589v-222h63 q144 0 144 127q0 55 -27 86q-35 41 -116 41q-22 0 -35 -2t-21 -4.5t-8 -25.5zM268 338h-58v-218q0 -52 16.5 -70.5t69.5 -18.5q68 0 109 34q46 38 46 114q0 78 -51 118.5t-132 40.5z" />
<glyph unicode="C" horiz-adv-x="659" d="M619 488l-25 -2q-21 82 -70 116q-43 30 -122 30q-128 0 -197 -87q-63 -80 -63 -206q0 -147 70 -234t191 -87q80 0 130 40q44 35 83 119l25 -3l-24 -82q-16 -53 -27 -79q-55 -14 -104 -21t-84 -7q-176 0 -274 106q-85 92 -85 225q0 154 106.5 251.5t271.5 97.5 q56 0 111 -10q55 -13 69 -16q6 -40 10.5 -82.5t7.5 -68.5z" />
<glyph unicode="D" horiz-adv-x="729" d="M40 650h280q94 0 163 -20t116 -64q39 -37 63 -92t24 -120q0 -176 -124 -269q-113 -85 -300 -85h-230v23q64 0 79 20t15 102v360q0 83 -13.5 102.5t-72.5 19.5v23zM210 587v-459q0 -37 3 -53t14 -25q20 -17 71 -17q147 0 224 91q67 79 67 204q0 89 -23 148q-30 76 -99 112 q-29 16 -73.5 24.5t-102.5 8.5q-33 0 -49 -1.5t-24 -4.5t-8 -28z" />
<glyph unicode="E" horiz-adv-x="554" d="M126 145v360q0 82 -14 102t-74 20v23h438l11 -146l-25 -3q-14 68 -36.5 92t-109.5 24h-76q-21 0 -25.5 -4.5t-4.5 -26.5v-228h101q64 0 77.5 11.5t21.5 68.5h25v-198h-25l-5 34q-5 25 -16 34q-15 13 -78 13h-101v-177q0 -83 25 -99q12 -8 37.5 -10t64.5 -2q50 0 80 6 t46 23q25 26 48 98l25 -3q-6 -35 -17 -84.5t-18 -72.5h-473v23q67 0 82.5 19.5t15.5 102.5z" />
<glyph unicode="F" horiz-adv-x="515" d="M127 145v360q0 82 -14 102t-74 20v23h434l11 -146l-25 -3q-14 68 -36.5 92t-109.5 24h-72q-21 0 -25.5 -4.5t-4.5 -26.5v-239h109q64 0 77.5 11.5t21.5 68.5h25v-197h-25q-8 57 -21.5 68.5t-77.5 11.5h-109v-165q0 -83 16.5 -102.5t87.5 -19.5v-23h-276v23q60 0 74 20 t14 102z" />
<glyph unicode="G" horiz-adv-x="702" d="M620 484l-24 -3q-19 87 -77 123q-45 28 -123 28q-118 0 -186 -77t-68 -218q0 -130 60 -216q72 -103 210 -103q59 0 94 13q18 7 23.5 18t5.5 46v89q0 54 -15 67q-19 16 -98 16v23h257v-23q-43 -7 -51.5 -18.5t-8.5 -64.5v-68q0 -31 1 -52.5t5 -38.5q-62 -17 -104 -26 q-65 -14 -114 -14q-158 0 -261 93t-103 240q0 161 114 258q105 89 256 89q60 0 115 -9q27 -4 76 -17z" />
<glyph unicode="H" horiz-adv-x="767" d="M210 363h347v142q0 82 -14 102t-74 20v23h264v-23q-62 0 -77 -20t-15 -102v-360q0 -83 14 -102.5t76 -19.5v-23h-270v23q66 0 81 19.5t15 102.5v178h-347v-178q0 -83 14 -102.5t76 -19.5v-23h-264v23q61 0 75.5 19.5t14.5 102.5v360q0 83 -14.5 102.5t-79.5 19.5v23h264 v-23q-58 0 -72 -20t-14 -102v-142z" />
<glyph unicode="I" horiz-adv-x="336" d="M210 505v-360q0 -83 14 -102.5t76 -19.5v-23h-264v23q61 0 75.5 19.5t14.5 102.5v360q0 83 -14 102.5t-76 19.5v23h264v-23q-61 0 -75.5 -19.5t-14.5 -102.5z" />
<glyph unicode="J" horiz-adv-x="330" d="M43 650h264v-23q-58 0 -72 -20t-14 -102v-353q0 -92 -15 -139q-19 -58 -73 -103q-21 -17 -49.5 -31t-51.5 -20l-10 23q46 19 70.5 49t34.5 81t10 177v316q0 83 -14.5 102.5t-79.5 19.5v23z" />
<glyph unicode="K" horiz-adv-x="657" d="M210 505v-169q35 28 119 116.5t120 133.5q11 14 11 21q0 12 -24 15l-41 5v23h241v-23q-51 -5 -78 -16.5t-75 -55.5l-80 -74q-45 -43 -112 -113l92 -106q70 -80 87 -98l62 -66q41 -43 64 -57t56 -18v-23h-148l-183 210q-82 94 -111 124v-189q0 -83 14.5 -102.5t79.5 -19.5 v-23h-265v23q59 0 73 20t14 102v360q0 83 -14.5 102.5t-77.5 19.5v23h265v-23q-61 0 -75 -19.5t-14 -102.5z" />
<glyph unicode="L" horiz-adv-x="531" d="M210 505v-361q0 -85 24 -98q12 -7 39.5 -10t54.5 -3q45 0 74 6t45 23q25 29 48 98l25 -3q-6 -35 -17 -84.5t-18 -72.5h-451v23q62 0 77 20t15 102v360q0 83 -14.5 102.5t-77.5 19.5v23h270v-23q-64 0 -79 -20t-15 -102z" />
<glyph unicode="M" horiz-adv-x="893" d="M40 650h165l242 -515l238 515h165v-23q-64 0 -77 -18.5t-13 -103.5l8 -360q0 -85 14 -103.5t80 -18.5v-23h-264v23q61 0 73.5 18.5t12.5 103.5l-4 403h-4l-245 -537h-25l-231 523l-12 -279q0 -32 -0.5 -67t-1.5 -73q0 -20 3 -44.5t23.5 -36t69.5 -11.5v-23h-235v23 q42 4 60.5 14.5t23.5 37.5q9 46 13 93.5t4 96.5l11 210q0 87 -4 106q-10 46 -90 46v23z" />
<glyph unicode="N" horiz-adv-x="741" d="M628 385v-392h-26l-434 527l-2 -255q0 -82 2 -119t6 -67.5t26.5 -43t71.5 -12.5v-23h-240v23q79 0 86 52q4 28 6 86t2 104v217q0 47 -1.5 69t-17.5 42q-27 34 -88 34v23h146l421 -504l2 239q0 82 -2 119t-6 67.5t-26.5 43t-71.5 12.5v23h240v-23q-79 0 -84.5 -40 t-7.5 -98t-2 -104z" />
<glyph unicode="O" horiz-adv-x="745" d="M384 665q133 0 225.5 -92.5t92.5 -238.5q0 -154 -95.5 -251.5t-240.5 -97.5q-141 0 -232 95t-91 238q0 136 87 236q97 111 254 111zM605 297q0 157 -68.5 246t-178.5 89q-93 0 -153 -72q-65 -78 -65 -213q0 -146 68.5 -237.5t178.5 -91.5q95 0 154 69q64 75 64 210z" />
<glyph unicode="P" horiz-adv-x="558" d="M208 589v-272q10 -4 30.5 -8t44.5 -4q59 0 96 32q49 42 49 131q0 80 -40.5 116.5t-119.5 36.5q-38 0 -49 -4t-11 -28zM208 287v-142q0 -83 16.5 -102.5t88.5 -19.5v-23h-279v23q61 0 75.5 19.5t14.5 102.5v360q0 83 -13.5 102.5t-71.5 19.5v23h253q53 0 94 -9.5t72 -32 t47.5 -56.5t16.5 -81q0 -87 -61 -142q-54 -49 -134 -59q-12 -1 -25.5 -1.5t-19.5 -0.5z" />
<glyph unicode="Q" horiz-adv-x="745" d="M722 -148l-3 -13q-47 4 -83 9t-56 11q-31 9 -82 35q-63 33 -152 92q-132 0 -217.5 95.5t-85.5 236.5q0 136 87 236q97 111 254 111q133 0 225.5 -92.5t92.5 -238.5q0 -126 -65 -215.5t-172 -119.5q58 -39 113 -71q76 -44 144 -76zM342 22l59 16l26 -16q80 16 127 84 q51 74 51 191q0 157 -68.5 246t-178.5 89q-93 0 -153 -72q-65 -78 -65 -213q0 -138 61 -227q55 -80 141 -98z" />
<glyph unicode="R" horiz-adv-x="622" d="M210 589v-274h58q34 0 57.5 5.5t42.5 21.5q30 24 44 58t14 74q0 74 -47 113q-41 34 -104 34q-27 0 -37.5 -1t-19 -4t-8.5 -27zM210 286v-141q0 -83 14 -102.5t76 -19.5v-23h-266v23q62 0 77 20t15 102v360q0 82 -14 102t-74 20v23h254q54 0 92 -7.5t67.5 -27t47 -52 t17.5 -75.5q0 -61 -34.5 -105t-97.5 -70l52 -86q19 -31 37 -57q26 -38 45 -63t39 -47q18 -22 33 -32.5t42 -17.5l-2 -19h-14q-79 0 -123 26q-31 18 -65 67q-16 24 -51 82l-50 84q-22 36 -63 36h-54z" />
<glyph unicode="S" horiz-adv-x="476" d="M40 172l25 4q19 -57 52 -96q52 -62 121 -62q57 0 90.5 35.5t33.5 93.5q0 44 -25 78.5t-104 72.5q-94 45 -123 76q-45 47 -45 107q0 77 55.5 130.5t150.5 53.5q19 0 43 -4t40 -9l38 -11l18 -135l-25 -3q-17 59 -40 87q-34 42 -96 42q-52 0 -80 -31.5t-28 -79.5 q0 -50 36 -85q28 -27 93 -56q79 -35 110 -61q61 -52 61 -133q0 -87 -63 -144t-159 -57q-28 0 -49 3.5t-46 11.5q-10 3 -32 12q-12 4 -23 9q-3 10 -13 67z" />
<glyph unicode="T" horiz-adv-x="606" d="M346 617v-472q0 -83 16.5 -102.5t89.5 -19.5v-23h-292v23q70 0 86 19.5t16 102.5v472h-47q-61 0 -90 -8t-39.5 -21.5t-19 -34.5t-17.5 -54h-25q0 35 3 69q9 103 9 107h14q11 -17 20.5 -21t31.5 -4h410q16 0 23 2.5t24 22.5h14q0 -37 3 -80q0 -1 8 -93l-25 -3 q-14 69 -36 92q-12 14 -37.5 20t-72.5 6h-67z" />
<glyph unicode="U" horiz-adv-x="729" d="M26 650h264v-23q-60 0 -74 -20t-14 -102v-209q0 -67 9.5 -113.5t33 -80.5t58.5 -51.5t85 -17.5q97 0 147 75q23 35 34 93.5t11 128.5v54q0 82 -2 120t-6 68t-26.5 42.5t-71.5 12.5v23h240v-23q-79 0 -84.5 -40t-7.5 -98.5t-2 -104.5v-67q0 -91 -17 -153t-59 -107 q-31 -34 -81.5 -53t-103.5 -19q-46 0 -88.5 12t-75.5 39q-77 62 -77 225v244q0 83 -14.5 102.5t-77.5 19.5v23z" />
<glyph unicode="V" horiz-adv-x="668" d="M363 -6h-30l-207 537q-24 61 -41.5 76t-64.5 20v23h243v-23l-32 -4q-37 -6 -37 -24q0 -7 5 -22q10 -30 41 -111l63 -161l72 -186l59 159l62 164q31 84 39.5 109t8.5 40q0 29 -45 33l-30 3v23h219v-23q-51 -5 -68 -20t-45 -82l-44 -106l-82 -204q-62 -156 -86 -221z" />
<glyph unicode="W" horiz-adv-x="944" d="M265 650v-23l-31 -4q-25 -3 -34.5 -8.5t-9.5 -19.5q0 -8 7 -31l135 -426l162 502h24l181 -501q21 62 46 146q18 60 43 152q20 73 29 111q3 14 5 24.5t2 17.5q0 29 -43 33l-29 4v23h212v-23q-50 -6 -66 -21t-40 -82q-10 -28 -55 -171l-111 -359h-27l-180 489l-2 -2 l-163 -487h-28l-173 537q-20 60 -37 75.5t-62 20.5v23h245z" />
<glyph unicode="X" horiz-adv-x="647" d="M23 650h252v-23l-32 -4q-34 -4 -34 -18q0 -8 9 -23l117 -184l51 80l58 97q13 23 13 31q0 14 -32 17l-36 4v23h224v-23q-54 -5 -72 -16t-55 -58q-19 -24 -61 -84l-71 -103l88 -133l82 -127q32 -51 54.5 -64.5t75.5 -18.5v-23h-263v23l28 4q37 4 37 20q0 7 -8 20l-78 125 l-64 100l-62 -100l-69 -120q-10 -18 -10 -27t6.5 -13t24.5 -6l36 -3v-23h-227v23q44 4 66 13.5t43 36.5q14 18 63 89l110 162l-140 218q-33 52 -52.5 66t-71.5 19v23z" />
<glyph unicode="Y" horiz-adv-x="595" d="M358 269v-124q0 -83 16.5 -102.5t87.5 -19.5v-23h-288v23q68 0 84 20t16 102v114q0 15 -3 23.5t-19 36.5l-127 224q-32 55 -47 67t-58 17v23h241v-23l-46 -6q-24 -5 -24 -18q0 -9 9 -26l85 -156q9 -16 55 -93l65 123q33 63 59 121q8 16 8 28q0 18 -37 22l-40 5v23h220 v-23q-47 -4 -66 -20q-14 -11 -49.5 -66.5t-62.5 -103.5l-62 -114q-11 -20 -14 -29.5t-3 -24.5z" />
<glyph unicode="Z" horiz-adv-x="599" d="M563 640l-422 -601q24 -2 87.5 -4t93.5 -2q64 0 112.5 7t67.5 24q30 27 59 102l25 -6q-10 -47 -16 -78q-12 -56 -20 -82h-522l-5 11l426 606h-183q-63 0 -89 -7t-40 -23q-10 -11 -19 -32t-18 -61h-25q0 38 3 73q9 106 9 108h14q11 -17 20.5 -21t31.5 -4h405z" />
<glyph unicode="[" horiz-adv-x="370" d="M134 -162v866h159v-24q-77 0 -91.5 -12.5t-14.5 -73.5v-646q0 -60 15 -73t91 -13v-24h-159z" />
<glyph unicode="\" horiz-adv-x="320" d="M290 -45h-57l-203 710h57z" />
<glyph unicode="]" horiz-adv-x="370" d="M236 704v-866h-159v24q77 0 91.5 12.5t14.5 73.5v646q0 60 -15 73t-91 13v24h159z" />
<glyph unicode="^" horiz-adv-x="617" d="M539 176h-56l-176 380l-176 -380h-52l209 448h42z" />
<glyph unicode="_" horiz-adv-x="500" d="M500 -75v-50h-500v50h500z" />
<glyph unicode="`" horiz-adv-x="273" d="M157 487l-17 -10l-146 127q-15 12 -15 21t15 18l13 8q9 6 17 6q10 0 17 -13z" />
<glyph unicode="a" horiz-adv-x="436" d="M431 37l-101 -49q-23 4 -38 25q-11 16 -17 40l-66 -42q-38 -23 -51 -23q-51 0 -85.5 35.5t-34.5 79.5q0 70 76 101l64 25q75 30 97 45v34q0 95 -82 95q-34 0 -55 -26q-16 -19 -26 -58q-5 -19 -23 -19q-13 0 -28 10.5t-15 23.5q0 18 34 43q26 20 59 36q49 25 95 33 q47 0 79 -24q23 -18 30.5 -42t7.5 -55v-225q0 -54 28 -54q17 0 43 13zM275 82v160l-51 -22l-50 -24q-52 -28 -52 -75q0 -38 20 -58t46 -20q18 0 41 10.5t46 28.5z" />
<glyph unicode="b" horiz-adv-x="515" d="M152 710v-305l93 35q17 6 38 6q79 0 136.5 -60.5t57.5 -144.5q0 -109 -73 -181t-176 -72q-43 0 -78 8t-76 28v566q0 45 -10 55t-60 10v20q28 6 70 16zM152 380v-279q0 -20 6.5 -34.5t24.5 -27.5q26 -19 61 -19q70 0 107.5 52t37.5 140q0 85 -44 135.5t-121 50.5 q-22 0 -39.5 -4.5t-32.5 -13.5z" />
<glyph unicode="c" horiz-adv-x="417" d="M394 109l13 -13q-32 -48 -75.5 -78t-85.5 -30q-92 0 -149.5 62.5t-57.5 148.5q0 55 24 103.5t65.5 82t92.5 49.5q39 12 72 12q22 0 47 -7t41 -20q10 -9 10 -22q0 -16 -11 -30t-22 -14q-7 0 -15 7q-27 24 -52.5 33.5t-51.5 9.5q-44 0 -78 -36q-42 -44 -42 -123 q0 -100 59 -152q44 -39 97 -39q34 0 55.5 10t63.5 46z" />
<glyph unicode="d" horiz-adv-x="528" d="M365 79v289q-15 23 -41 32t-59 9q-48 0 -85 -33q-53 -48 -53 -150q0 -85 45 -136q40 -45 93 -45q26 0 53.5 9.5t46.5 24.5zM443 710v-612q0 -32 6 -41t26 -9l43 -1v-22l-83 -17q-36 -9 -70 -23v64l-80 -43q-13 -7 -28 -12.5t-25 -5.5q-69 0 -127 54q-66 62 -66 159 q0 102 76.5 173.5t193.5 71.5q8 0 24.5 -2.5t31.5 -7.5v154q0 45 -11 55t-65 10v20q37 6 83 17q32 7 71 18z" />
<glyph unicode="e" horiz-adv-x="420" d="M379 100l14 -14q-36 -51 -86 -78q-37 -20 -65 -20q-92 0 -147.5 60.5t-55.5 150.5q0 102 62 174.5t152 72.5q58 0 100.5 -43.5t42.5 -95.5q0 -23 -3.5 -28.5t-23 -9.5t-109.5 -10t-147 -6q0 -102 54 -156q45 -45 109 -45q27 0 50 10.5t53 37.5zM119 289l174 3 q11 0 14.5 5.5t3.5 26.5q0 33 -22 59q-25 29 -62 29q-38 0 -70 -34.5t-38 -88.5z" />
<glyph unicode="f" horiz-adv-x="295" d="M295 396h-114v-306q0 -43 14 -55t75 -12v-23h-233v23q47 5 56.5 15t9.5 52v306h-71l-4 10l28 28h47v15q0 60 11.5 94t17.5 45q20 38 56 69q56 46 119 53q19 0 39.5 -10.5t35.5 -26.5q7 -8 7 -16q0 -6 -2.5 -12t-7.5 -12t-12.5 -13t-15.5 -7q-5 0 -13 6q-18 17 -40 29 t-45 12q-24 0 -44 -27q-11 -14 -19.5 -55.5t-8.5 -101.5v-42h124q2 -6 2 -12q0 -20 -12 -26z" />
<glyph unicode="g" horiz-adv-x="458" d="M414 381l-56 4q16 -17 24 -38.5t8 -45.5q0 -75 -56 -119q-49 -39 -116 -39l-32 1q-17 -6 -35 -19.5t-18 -23.5q0 -16 15.5 -25t48.5 -9h117q51 0 85 -19q50 -28 50 -94q0 -76 -73 -136t-165 -60q-89 0 -139 41q-43 35 -43 82q0 18 5 30.5t14 22.5t40.5 34.5t50.5 36.5 q-29 7 -49.5 21t-31.5 32q-6 10 -8 20t-1 19q25 9 54 25q22 12 48 31q-44 15 -71.5 49.5t-27.5 80.5q0 76 59 123q51 40 115 40q52 0 92 -24q28 0 43 1.5t91 11.5l5 -8q-7 -13 -20 -27.5t-23 -18.5zM217 418q-33 0 -58 -30.5t-25 -83.5q0 -59 26 -96t69 -37q33 0 57.5 29 t24.5 85q0 57 -25.5 95t-68.5 38zM246 -195q70 0 108 35q32 30 32 70q0 31 -13.5 51t-34.5 28.5t-49.5 11.5t-58.5 3q-57 0 -87 -24q-17 -14 -27 -31.5t-10 -40.5q0 -46 38.5 -74.5t101.5 -28.5z" />
<glyph unicode="h" horiz-adv-x="533" d="M168 710v-334q28 29 63 48q41 22 79 22q65 0 101.5 -38.5t36.5 -105.5v-212q0 -43 10.5 -54.5t55.5 -11.5v-24h-212v23q47 5 57.5 15t10.5 52v182q0 56 -22 86q-25 33 -77 33q-30 0 -57 -12t-46 -34v-255q0 -42 10 -52.5t56 -14.5v-23h-212v23q47 5 57.5 15t10.5 52v499 q0 45 -9 53t-62 13v20q33 6 78 17q27 6 71 18z" />
<glyph unicode="i" horiz-adv-x="266" d="M181 448v-358q0 -43 10.5 -52.5t61.5 -14.5v-23h-221v23q50 5 60.5 14.5t10.5 52.5v231q0 45 -9 54t-59 15v18q40 9 71 17q40 11 75 23zM142 682q22 0 37 -16t15 -39q0 -22 -15 -38t-37 -16q-21 0 -36.5 15.5t-15.5 38.5t15 39t37 16z" />
<glyph unicode="j" horiz-adv-x="255" d="M104 125v196q0 45 -9 54t-64 15v18q39 8 77.5 18t73.5 22v-332q0 -56 -5 -87.5t-23 -76.5q-24 -61 -70 -122q-34 -46 -56 -64q-10 -8 -20 -8q-7 0 -17 11t-10 26q0 13 13 18q27 9 40 16q18 10 30 26q17 23 25 67.5t11.5 97.5t3.5 105zM141 682q22 0 37 -16t15 -39 q0 -22 -15 -38t-37 -16q-21 0 -36.5 15.5t-15.5 38.5t15 39t37 16z" />
<glyph unicode="k" horiz-adv-x="490" d="M167 710v-471q26 5 38.5 12.5t26.5 22.5q10 11 25.5 31.5t47.5 68.5q8 12 8 21t-10 10l-27 3v23l189 9v-22l-40 -9q-28 -6 -50 -23q-7 -5 -33 -30q-18 -17 -43 -47l-42 -50q22 -29 103 -121l60 -67q40 -41 58 -44l23 -4v-23h-125l-79 98l-82 97q-11 13 -18 17t-13 4 l-17 -3v-123q0 -43 10.5 -52.5t61.5 -14.5v-23h-226v23q53 5 64.5 15t11.5 52v499q0 46 -10 56t-62 10v20q32 6 72.5 15.5t77.5 19.5z" />
<glyph unicode="l" horiz-adv-x="252" d="M89 90v500q0 45 -10 55t-61 10v20q35 7 75 16.5t74 18.5v-620q0 -42 11 -52.5t62 -14.5v-23h-224v23q52 5 62.5 14.5t10.5 52.5z" />
<glyph unicode="m" horiz-adv-x="824" d="M103 90v231q0 45 -9 54t-59 15v18q40 9 71 17q40 11 75 23v-75l68 44q24 14 45 21.5t45 7.5q38 0 68.5 -20.5t44.5 -57.5l31 22q28 19 44 28q23 13 44.5 20.5t43.5 7.5q59 0 92.5 -36.5t33.5 -96.5v-223q0 -42 9.5 -52t53.5 -15v-23h-212v23q50 5 60.5 14.5t10.5 52.5 v192q0 50 -18 76q-23 32 -75 32q-55 0 -111 -48l2 -28v-224q0 -42 9.5 -52t54.5 -15v-23h-212v23q49 5 59.5 15t10.5 52v196q0 48 -19 74q-22 30 -71 30q-30 0 -57 -12t-55 -35v-253q0 -42 10 -52.5t55 -14.5v-23h-217v23q53 5 63.5 14.5t10.5 52.5z" />
<glyph unicode="n" horiz-adv-x="546" d="M181 448v-75l22 15l45 29q24 15 44 22t42 7q60 0 93.5 -36.5t33.5 -96.5v-223q0 -42 9.5 -52t53.5 -15v-23h-212v23q50 5 60.5 14.5t10.5 52.5v192q0 50 -18 76q-23 32 -75 32q-29 0 -56 -12t-53 -35v-253q0 -42 9.5 -52t54.5 -15v-23h-216v23q53 5 63.5 14.5t10.5 52.5 v231q0 45 -9 54t-59 15v18q40 9 71 17q40 11 75 23z" />
<glyph unicode="o" horiz-adv-x="517" d="M272 18q51 0 81 41q34 47 34 143q0 89 -35 149q-38 65 -104 65q-51 0 -84.5 -48t-33.5 -126q0 -98 38.5 -161t103.5 -63zM261 -12q-100 0 -164 69q-58 63 -58 148q0 115 76 183q65 58 145 58q95 0 156.5 -63.5t61.5 -158.5q0 -110 -70 -176q-63 -60 -147 -60z" />
<glyph unicode="p" horiz-adv-x="528" d="M170 456v-72q58 30 115 56q14 6 32 6q79 0 128 -59q44 -53 44 -123q0 -112 -74 -187q-69 -69 -182 -89q-18 0 -34.5 6t-28.5 14v-148q0 -43 14.5 -55t75.5 -12v-23h-240v23q51 5 61.5 14.5t10.5 52.5v469q0 45 -9 53t-63 13v18q32 7 49 12zM170 354v-279 q17 -19 41.5 -29.5t58.5 -10.5q51 0 90 41q47 49 47 133q0 88 -38.5 135t-103.5 47q-20 0 -46 -10t-49 -27z" />
<glyph unicode="q" horiz-adv-x="512" d="M441 330v-470q0 -43 10.5 -52.5t60.5 -14.5v-23h-237v23q61 0 74.5 11.5t13.5 55.5v163l-105 -35q-107 0 -167 69q-52 60 -52 141q0 104 80 176t206 72q20 -4 35.5 -8t25.5 -7.5t21 -3.5q8 0 34 11l3 -3q0 -12 -1.5 -47t-1.5 -58zM363 52v321q-16 16 -41 24.5t-55 8.5 q-57 0 -96 -42q-44 -48 -44 -132q0 -93 51 -148q47 -50 120 -50q36 0 65 18z" />
<glyph unicode="r" horiz-adv-x="367" d="M181 301v-211q0 -43 13.5 -55t69.5 -12v-23h-230v23q48 5 58.5 15t10.5 52v231q0 45 -9 54t-59 15v18q41 9 76 18t70 22v-103q25 40 52 65q38 36 70 36q21 0 37.5 -15.5t16.5 -31.5q0 -13 -8.5 -28t-23.5 -21q-8 -3 -13 -3q-6 0 -12 4q-13 11 -22 16t-21 5 q-19 0 -38.5 -17t-37.5 -54z" />
<glyph unicode="s" horiz-adv-x="355" d="M38 134l23 6q13 -48 44 -83q35 -39 76 -39q30 0 50.5 19t20.5 55q0 31 -18.5 53.5t-59.5 40.5q-58 26 -84 50q-36 33 -36 79q0 54 42.5 92.5t106.5 38.5q26 0 46.5 -4.5t37.5 -12.5q7 -15 13.5 -46.5t8.5 -49.5l-24 -6q-22 47 -46.5 68t-53.5 21q-32 0 -49 -20t-17 -48 t27 -52q22 -19 60 -35q59 -24 88 -54q33 -34 33 -82q0 -64 -52 -103q-46 -34 -109 -34q-36 0 -67 11t-49 26q-4 10 -8 45t-4 64z" />
<glyph unicode="t" horiz-adv-x="309" d="M171 396v-264q0 -52 22 -75q16 -17 42 -17q14 0 28 4.5t31 14.5l10 -22l-82 -41q-16 -8 -30 -8q-99 0 -99 121v287h-73l-4 10l29 28h48v63l65 66h13v-129h116q4 -5 4 -14q0 -14 -11 -24h-109z" />
<glyph unicode="u" horiz-adv-x="540" d="M375 96v253q0 26 -7 35.5t-24 11.5l-48 6v21q23 0 56.5 3.5t100.5 14.5v-350q0 -29 5.5 -36.5t23.5 -7.5l44 -2v-22q-33 -4 -77 -15q-33 -8 -68 -20l-6 6v71q-8 -7 -35 -26t-41 -27q-41 -24 -79 -24q-57 0 -89 31q-36 35 -36 106v224q0 27 -6.5 36.5t-25.5 11.5l-31 5v21 q15 0 43 3.5t98 14.5v-281q0 -64 27 -92q22 -23 61 -23q54 0 114 51z" />
<glyph unicode="v" horiz-adv-x="457" d="M247 -7h-25l-141 354q-16 41 -27 50t-53 14v23h199v-23l-34 -4q-14 -2 -14 -15q0 -7 6 -24l100 -260l46 126l46 129q6 18 6 27q0 13 -13 15l-41 6v23h170v-23q-40 -4 -50.5 -13t-30.5 -52q-47 -104 -86 -201q-30 -74 -58 -152z" />
<glyph unicode="w" horiz-adv-x="678" d="M224 -7h-27l-120 357q-13 39 -23 47.5t-50 13.5v23h205v-23l-41 -7q-20 -4 -20 -19q0 -9 4 -20l83 -250l121 314h22l122 -314q19 52 42 126.5t35 122.5q3 14 3 21q0 17 -26 21l-39 5v23h178v-23q-37 -6 -48.5 -17t-28.5 -57l-57 -157l-64 -187h-27l-124 311z" />
<glyph unicode="x" horiz-adv-x="469" d="M16 434h202v-23l-22 -4q-19 -3 -19 -15q0 -7 9 -21l64 -97l32 51q18 28 24 39q13 22 13 31q0 6 -4.5 9t-16.5 5l-19 2v23h182v-23q-49 0 -69 -10.5t-52 -51.5q-17 -21 -39 -51t-35 -50l101 -156q28 -43 43.5 -52.5t67.5 -16.5v-23h-218v23l23 4q23 5 23 16q0 8 -9 22 l-75 116l-68 -107q-15 -26 -15 -34q0 -10 19 -13l30 -4v-23h-183v23q51 6 66.5 15t52.5 58l81 111l-89 138q-26 41 -40 50.5t-60 15.5v23z" />
<glyph unicode="y" horiz-adv-x="447" d="M201 434v-23l-30 -4q-18 -3 -18 -18q0 -5 1.5 -11t5.5 -18l87 -246q20 44 53 129t45 120q6 18 6 27q0 13 -20 16l-37 5v23h176v-23q-39 -7 -50.5 -17.5t-35.5 -55.5q-33 -61 -127 -283l-71 -173q-26 -64 -36 -99q-3 -13 -11.5 -19t-19.5 -6q-18 0 -34 14t-16 32 q0 9 7 16.5t21 18.5q41 29 69 87l31 73q2 4 2 15q0 9 -3 18q-21 65 -57 163l-53 142q-17 47 -30 58t-58 16v23h203z" />
<glyph unicode="z" horiz-adv-x="411" d="M135 434h242l5 -10l-85 -130l-83 -131l-82 -133h109q52 0 77.5 13.5t49.5 53.5l14 23l23 -11q-20 -57 -42 -109h-333l-4 9l86 131l84 132l83 132h-106q-43 0 -64 -15q-17 -12 -35 -50l-13 -26l-23 8q7 22 16 59l16 75h15q3 -12 13.5 -16.5t36.5 -4.5z" />
<glyph unicode="{" horiz-adv-x="370" d="M77 259v23q57 0 77 33q12 19 12 60q0 11 -1 24q-4 38 -6 65q-5 47 -6 69t-1 53q0 73 49 103q34 21 86 21v-23q-49 -7 -67 -34q-13 -20 -13 -58q0 -16 3.5 -51.5t3.5 -46.5l12 -109q0 -43 -18 -72q-21 -33 -62 -43v-4q40 -10 60 -41.5t20 -74.5q0 -16 -6 -58l-6 -50 q0 -10 -3.5 -45.5t-3.5 -52.5q0 -38 13 -58q18 -27 67 -34v-23q-52 0 -85 20q-50 31 -50 104q0 30 1 53t5 61t6 60t2 37q0 40 -12 59q-20 33 -77 33z" />
<glyph unicode="|" horiz-adv-x="252" d="M96 750h60v-1000h-60v1000z" />
<glyph unicode="}" horiz-adv-x="370" d="M293 282v-23q-57 0 -77 -33q-12 -19 -12 -59q0 -13 2.5 -40t6 -61.5t4.5 -56.5t1 -53q0 -74 -49 -104q-33 -20 -86 -20v23q49 7 67 34q13 20 13 58q0 11 -3.5 46.5t-3.5 51.5l-12 108q0 44 19.5 75t60.5 41v4q-41 10 -60.5 41t-19.5 74q0 14 3.5 44t8.5 65q0 17 3.5 53 t3.5 45q0 38 -13 58q-18 27 -67 34v23q52 0 85 -20q50 -31 50 -104v-12q0 -37 -7 -110q-3 -30 -5 -52t-2 -37q0 -41 12 -60q20 -33 77 -33z" />
<glyph unicode="~" horiz-adv-x="617" d="M534 312l30 -26q-27 -50 -65.5 -78.5t-80.5 -28.5q-37 0 -74 15l-60 30q-24 12 -46 18.5t-43 6.5q-60 0 -111 -82l-31 27q41 64 86 88q32 17 72 17q44 0 117 -37q29 -14 53 -22t44 -8q30 0 56 19t53 61z" />
<glyph horiz-adv-x="755" d="M258 145v472h-43q-62 0 -90.5 -7.5t-39 -20.5t-19 -34t-17.5 -54h-25q0 33 3 67q9 101 9 107h14q11 -17 20.5 -21t31.5 -4h435q16 0 23 2.5t24 22.5h14q0 -37 5 -103q0 -5 6 -68l-25 -3q-14 69 -36 92q-11 14 -36.5 19t-73.5 5h-96v-263l73 16q36 8 45 8q128 0 197 -76 q58 -63 58 -151q0 -124 -87 -210q-79 -78 -216 -110l-7 23q97 32 150 95q64 76 64 196q0 95 -44.5 146t-133.5 51q-31 0 -54.5 -4.5t-44.5 -14.5v-178q0 -84 14.5 -103t80.5 -19v-23h-276v23q66 0 81.5 19.5t15.5 102.5z" />
<glyph horiz-adv-x="500" d="M126 145v361q0 82 -13.5 101.5t-72.5 19.5v23h437l11 -145l-25 -3q-14 68 -36 91.5t-110 23.5h-67q-29 0 -34.5 -4.5t-5.5 -30.5v-437q0 -83 16.5 -102.5t88.5 -19.5v-23h-279v23q61 0 75.5 19.5t14.5 102.5zM432 749l-194 -67l-11 15l164 100q11 6 19 6q11 0 21 -13 l9 -13q8 -10 8 -14q0 -8 -16 -14z" />
<glyph horiz-adv-x="651" d="M126 145v360q0 83 -14 102.5t-76 19.5v23h264v-23q-61 0 -75.5 -19.5t-14.5 -102.5v-149q61 0 85.5 7.5t48.5 30.5t53 85l39 88q22 52 49 75t61 23q27 0 41 -10.5t14 -25.5q0 -16 -10.5 -24.5t-26.5 -8.5h-31q-35 0 -63 -50l-53 -106q-19 -38 -50 -63q-19 -15 -45 -27 q43 -18 67 -37q30 -23 53 -61q16 -26 35 -62l47 -86q23 -44 46.5 -60.5t60.5 -20.5v-23h-87q-40 0 -68 25q-23 20 -45 67l-41 84q-10 21 -32 60q-32 59 -62 75.5t-86 16.5v-183q0 -83 14 -102.5t76 -19.5v-23h-264v23q61 0 75.5 19.5t14.5 102.5zM507 749l-194 -67l-11 15 l164 100q11 6 19 6q11 0 21 -13l9 -13q8 -10 8 -14q0 -8 -16 -14z" />
<glyph horiz-adv-x="818" d="M262 145v472h-47q-61 0 -90 -8t-39.5 -21.5t-19 -34.5t-17.5 -54h-25q0 35 3 69q9 103 9 107h14q11 -17 20.5 -21t31.5 -4h444q16 0 23 2.5t24 22.5h14q0 -37 3 -80q0 -1 8 -93l-25 -3q-14 69 -36 92q-12 14 -37.5 20t-72.5 6h-101v-269q61 19 102 28.5t59 9.5 q64 0 106 -16q32 -12 55 -36q19 -18 26.5 -44.5t7.5 -71.5v-73q0 -83 14 -102.5t76 -19.5v-23h-264v23q61 0 75.5 19.5t14.5 102.5v77q0 53 -20 79q-32 42 -119 42q-35 0 -72 -7t-61 -16v-175q0 -83 15.5 -102.5t85.5 -19.5v-23h-282v23q66 0 81.5 19.5t15.5 102.5z" />
<glyph horiz-adv-x="747" d="M36 650h264v-23q-61 0 -75.5 -19.5t-14.5 -102.5v-392q0 -56 17.5 -68t90.5 -12h107q76 0 94 12t18 69v391q0 83 -14 102.5t-76 19.5v23h264v-23q-61 0 -75.5 -19.5t-14.5 -102.5v-360q0 -83 14 -102.5t76 -19.5v-23h-220q-43 0 -58.5 -12.5t-24.5 -42.5 q-5 -16 -10.5 -54t-9.5 -76h-29q-9 94 -19 126.5t-23 43.5q-19 15 -61 15h-220v23q61 0 75.5 19.5t14.5 101.5v361q0 83 -14 102.5t-76 19.5v23z" />
<glyph horiz-adv-x="515" d="M172 710v-182h204v-36h-204v-119l64 25q16 6 28 9.5t28 3.5q87 0 138 -71q46 -65 46 -159q0 -123 -75 -225q-67 -90 -184 -153l-15 23q94 58 139 144.5t45 204.5q0 96 -39 145q-35 44 -97 44q-41 0 -78 -20v-254q0 -42 10.5 -51.5t61.5 -14.5v-24h-222v24q51 5 61.5 14.5 t10.5 51.5v402h-67v36h67v61q0 45 -10.5 55t-62.5 10v21q30 6 71 15z" />
<glyph horiz-adv-x="507" d="M28 434h217v-23q-48 -5 -57.5 -14.5t-9.5 -52.5v-103q40 0 78 31q16 13 40 45q20 26 36 54q19 30 35 46q28 27 59 27q18 0 31 -8t13 -22t-9 -23t-29 -9h-23q-20 0 -36.5 -12.5t-51.5 -64.5q-11 -17 -26 -33t-32 -26v-4q19 -5 37 -16.5t32 -33.5l62 -94q28 -45 46 -60 t47 -15v-23h-57q-38 0 -57 9q-25 12 -46 47l-36 63q-2 3 -26 50q-14 29 -35 39t-52 10v-128q0 -43 10.5 -52.5t61.5 -14.5v-23h-224v23q53 5 63.5 14.5t10.5 52.5v254q0 43 -10.5 52.5t-61.5 14.5v23zM395 604l-147 -127l-17 10l116 157q9 13 17 13t17 -6l13 -8 q15 -9 15 -18q0 -10 -14 -21z" />
<glyph horiz-adv-x="533" d="M168 710v-182h202v-36h-202v-146q28 29 63 48q41 22 79 22q65 0 101.5 -38.5t36.5 -105.5v-182q0 -43 10.5 -54.5t55.5 -11.5v-24h-212v23q47 5 57.5 15t10.5 52v152q0 56 -22 86q-25 33 -77 33q-30 0 -57 -12t-46 -34v-225q0 -42 10 -52.5t56 -14.5v-23h-212v23 q47 5 57.5 15t10.5 52v402h-67v36h67v61q0 45 -9 53t-62 13v20q33 6 78 17q27 6 71 18z" />
<glyph unicode="&#xa1;" horiz-adv-x="654" d="M20 650h232v-24l-30 -4q-24 -3 -24 -20q0 -13 12 -39l152 -313l43 99l41 99q22 56 36 99q9 27 9 42q0 30 -46 34l-30 3v24h219v-24q-49 -5 -65 -20t-48 -84q-2 -5 -55 -124l-75 -168q-53 -121 -59 -133q-33 -72 -75 -103q-32 -24 -69 -24q-23 0 -43.5 9t-30 22.5 t-9.5 28.5q0 19 14 30q10 7 22 7q14 0 24 -10t25 -17.5t31 -7.5q35 0 63 49q23 40 23 64q0 12 -2 23t-11 30l-174 361q-19 39 -35 49.5t-65 17.5v24zM338 683q-58 0 -94.5 20.5t-36.5 56.5q0 12 9 24t23 12q19 0 27 -12.5t8 -27.5q0 -43 64 -43q32 0 48 9.5t16 33.5 q0 20 10 30t25 10t23.5 -11t8.5 -25q0 -35 -37 -56t-94 -21z" />
<glyph unicode="&#xa2;" horiz-adv-x="447" d="M244 511q56 0 51 28l-5 19q-2 6 -2 10q0 10 3 15q8 13 27 13q17 0 27 -12t10 -29q0 -30 -30 -50.5t-81 -20.5q-52 0 -81.5 19.5t-29.5 51.5q0 17 10 29t28 12q29 0 29 -28q0 -4 -2 -10l-5 -19q-5 -28 51 -28zM203 434v-23l-32 -4q-17 -3 -17 -18q0 -10 8 -29l96 -251 q16 38 49 134q26 74 40 120q6 17 6 26q0 14 -22 17l-37 5v23h176v-23q-38 -7 -49.5 -17.5t-33.5 -55.5q-14 -29 -45 -107l-72 -181q-29 -74 -50 -123q-36 -84 -58 -120q-18 -29 -35 -39t-37 -10q-42 0 -42 39q0 16 8 27t25 11q30 0 54 20q28 24 52 80l25 64q2 8 2 11t-4 17 l-62 166l-59 144q-20 48 -31 57q-14 12 -60 17v23h205z" />
<glyph unicode="&#xa3;" horiz-adv-x="330" d="M43 650h264v-23q-58 0 -72 -20t-14 -102v-348q0 -95 -15 -143q-19 -59 -73 -104q-21 -17 -49.5 -31t-51.5 -20l-10 23q46 19 70.5 49t34.5 81t10 177v316q0 83 -14.5 102.5t-79.5 19.5v23z" />
<glyph unicode="&#xa4;" d="M240 487q-54 0 -91 -46t-37 -116q0 -71 36.5 -116.5t91.5 -45.5t91.5 45.5t36.5 116.5q0 70 -37 116t-91 46zM240 528q56 0 108 -38l69 79l47 -46l-73 -73q20 -25 32 -57.5t12 -67.5t-12 -67.5t-32 -58.5l73 -72l-47 -47l-69 79q-24 -17 -53 -27.5t-55 -10.5 q-56 0 -109 38l-68 -79l-47 47l73 72q-44 53 -44 126t44 125l-73 73l47 46l68 -79q53 38 109 38z" />
<glyph unicode="&#xa5;" horiz-adv-x="500" d="M126 145v361q0 82 -13.5 101.5t-72.5 19.5v23h278q88 0 110 23q11 12 18 28.5t16 48.5l25 -3l-11 -130h-226q-29 0 -34.5 -4.5t-5.5 -30.5v-437q0 -83 16.5 -102.5t88.5 -19.5v-23h-279v23q61 0 75.5 19.5t14.5 102.5z" />
<glyph unicode="&#xa6;" horiz-adv-x="252" d="M96 675h60v-350h-60v350zM96 -175v350h60v-350h-60z" />
<glyph unicode="&#xa7;" horiz-adv-x="493" d="M259 627q-35 0 -55 -23t-20 -53q0 -23 9.5 -43t33.5 -39l71 -56l44 -33q44 -31 71 -71q33 -49 33 -99q0 -54 -36 -125q-28 -54 -73 -113q-34 -45 -67 -69t-76 -37q-14 0 -35.5 6t-36.5 15q-22 15 -22 30q0 9 7 19t14 14t11 4q2 0 12 -5q22 -14 38 -19.5t35 -5.5 q31 0 56 19q31 24 31 66q0 35 -14 58.5t-59 65.5q-16 15 -58.5 48t-54.5 44q-36 33 -52 60q-20 34 -20 76q0 50 24.5 104.5t64.5 102t75.5 72.5t83.5 36q17 0 37 -8t33 -18.5t13 -22.5q0 -11 -5 -20t-11 -15q-8 -6 -17 1q-19 14 -28 19q-28 15 -57 15zM307 318l-51 41 q-65 51 -74 61q-16 15 -27 34q-15 26 -15 55q1 8 1 12q-23 -25 -34.5 -50.5t-11.5 -60.5q0 -40 17.5 -70t59.5 -67l68 -55q37 -30 63 -57t32 -40q15 -19 15 -56q0 -6 -2 -18l2 -2q24 29 35 57t11 66q0 34 -16 66q-21 42 -73 84z" />
<glyph unicode="&#xa8;" horiz-adv-x="554" d="M126 145v360q0 82 -14 102t-74 20v23h438l11 -146l-25 -3q-14 68 -36.5 92t-109.5 24h-76q-21 0 -25.5 -4.5t-4.5 -26.5v-228h101q64 0 77.5 11.5t21.5 68.5h25v-198h-25l-5 34q-5 25 -16 34q-15 13 -78 13h-101v-177q0 -83 25 -99q12 -8 37.5 -10t64.5 -2q50 0 80 6 t46 23q25 26 48 98l25 -3q-6 -35 -17 -84.5t-18 -72.5h-473v23q67 0 82.5 19.5t15.5 102.5zM372 688q-20 0 -32.5 12.5t-12.5 32.5q0 19 12.5 32.5t32.5 13.5q19 0 31.5 -13.5t12.5 -32.5q0 -20 -12.5 -32.5t-31.5 -12.5zM183 688q-20 0 -32.5 12.5t-12.5 32.5 q0 19 12.5 32.5t32.5 13.5q19 0 31.5 -13.5t12.5 -32.5q0 -20 -12.5 -32.5t-31.5 -12.5z" />
<glyph unicode="&#xa9;" horiz-adv-x="702" d="M494 378l-18 -1q-30 84 -104 84q-58 0 -90 -41t-32 -105q0 -68 35 -111t89 -43q41 0 68 21t44 65l19 -3l-12 -48q-8 -31 -12 -42q-24 -8 -51.5 -13.5t-55.5 -5.5q-92 0 -145 55q-47 48 -47 118q0 81 56 129.5t136 48.5q36 0 64 -5.5t45 -12.5zM351 4q-127 0 -214 89 t-87 217t86.5 217.5t214.5 89.5t214.5 -88.5t86.5 -218.5q0 -127 -86.5 -216.5t-214.5 -89.5zM351 583q-111 0 -183 -78t-72 -194q0 -117 72 -195t183 -78q112 0 183.5 78.5t71.5 194.5q0 117 -71.5 194.5t-183.5 77.5z" />
<glyph unicode="&#xaa;" horiz-adv-x="646" d="M601 488l-25 -2q-21 82 -70 116q-42 30 -115 30q-117 0 -185 -81q-63 -76 -63 -194l325 10v-56l-325 10q0 -137 67 -220t171 -83q68 0 110 31q34 25 53 75q16 43 43 43q13 0 21.5 -9.5t8.5 -25.5q0 -21 -16 -45t-42 -46t-79 -39t-104 -17q-159 0 -251 105q-82 94 -82 226 q0 154 104.5 251.5t264.5 97.5q50 0 103 -10q54 -13 68 -16q6 -40 10.5 -82.5t7.5 -68.5z" />
<glyph unicode="&#xab;" horiz-adv-x="441" d="M391 51l-18 -15q-105 130 -160 189q58 66 64 74l96 116l18 -14l-99 -176zM228 51l-18 -15q-105 130 -160 189q58 66 64 74l96 116l18 -14l-99 -176z" />
<glyph unicode="&#xac;" horiz-adv-x="617" d="M513 106v247h-463v45h517v-292h-54z" />
<glyph unicode="&#xad;" horiz-adv-x="365" d="M60 255h245v-57h-245v57z" />
<glyph unicode="&#xae;" horiz-adv-x="538" d="M269 665q96 0 162.5 -67.5t66.5 -163.5q0 -95 -66.5 -162.5t-162.5 -67.5t-162.5 67.5t-66.5 162.5q0 96 66.5 163.5t162.5 67.5zM269 636q-79 0 -134 -59t-55 -142q0 -85 54.5 -142.5t134.5 -57.5q79 0 134 58.5t55 141.5q0 84 -54.5 142.5t-134.5 58.5zM158 562h117 q51 0 73 -21q17 -16 17 -46q0 -22 -15.5 -39.5t-39.5 -25.5l34 -57q20 -28 31.5 -40t19.5 -15l3 -1l-1 -13l-20 1q-25 0 -40 8t-28 28l-36 63q-8 13 -18 13h-17v-58q0 -24 5 -29t30 -7v-17h-117v17q26 2 31 7t5 29v150q0 25 -5.5 30.5t-28.5 5.5v17zM238 528v-92h23 q16 0 29.5 7.5t18.5 20.5t5 25q0 28 -16 41.5t-35 13.5t-22 -2t-3 -14z" />
<glyph unicode="&#xaf;" horiz-adv-x="336" d="M210 505v-360q0 -83 14 -102.5t76 -19.5v-23h-264v23q61 0 75.5 19.5t14.5 102.5v360q0 83 -14 102.5t-76 19.5v23h264v-23q-61 0 -75.5 -19.5t-14.5 -102.5zM263 688q-20 0 -32.5 12.5t-12.5 32.5q0 19 12.5 32.5t32.5 13.5q19 0 31.5 -13.5t12.5 -32.5 q0 -20 -12.5 -32.5t-31.5 -12.5zM74 688q-20 0 -32.5 12.5t-12.5 32.5q0 19 12.5 32.5t32.5 13.5q19 0 31.5 -13.5t12.5 -32.5q0 -20 -12.5 -32.5t-31.5 -12.5z" />
<glyph unicode="&#xb0;" horiz-adv-x="340" d="M170 381q-61 0 -103 38t-42 104q0 64 42 103t103 39t103 -39t42 -103q0 -66 -42 -104t-103 -38zM170 423q38 0 61.5 27.5t23.5 72.5t-23.5 72.5t-61.5 27.5t-61.5 -27.5t-23.5 -72.5t23.5 -72.5t61.5 -27.5z" />
<glyph unicode="&#xb1;" horiz-adv-x="617" d="M567 45v-45h-517v45h517zM336 115h-54v226h-232v45h232v213h54v-213h231v-45h-231v-226z" />
<glyph unicode="&#xb2;" horiz-adv-x="336" d="M210 505v-360q0 -83 14 -102.5t76 -19.5v-23h-264v23q61 0 75.5 19.5t14.5 102.5v360q0 83 -14 102.5t-76 19.5v23h264v-23q-61 0 -75.5 -19.5t-14.5 -102.5z" />
<glyph unicode="&#xb3;" horiz-adv-x="266" d="M181 448v-358q0 -43 10.5 -52.5t61.5 -14.5v-23h-221v23q50 5 60.5 14.5t10.5 52.5v231q0 45 -9 54t-59 14v19q40 9 71 17q40 11 75 23zM142 682q22 0 37 -16t15 -39q0 -22 -15 -38t-37 -16q-21 0 -36.5 15.5t-15.5 38.5t15 39t37 16z" />
<glyph unicode="&#xb4;" horiz-adv-x="386" d="M31 434h224q28 0 42.5 5.5t22.5 15.5q17 23 32 77l24 -3l-10 -125h-156q-20 0 -24.5 -4.5t-4.5 -26.5v-283q0 -42 11.5 -52t64.5 -15v-23h-222v23q47 5 57.5 15t10.5 52v254q0 42 -10.5 52t-61.5 15v23z" />
<glyph unicode="&#xb5;" horiz-adv-x="527" d="M358 434h78v-333q0 -34 8 -46t20 -12q21 0 32 28l22 -8q-8 -35 -29 -55t-54 -20q-31 0 -51 19q-24 23 -24 68q-16 -37 -50 -62t-74 -25q-36 0 -60.5 12.5t-41.5 44.5l10 -257l-67 -30l-10 8q0 81 4.5 200t4.5 145v323h78v-266q0 -71 29 -102q24 -26 65 -26q40 0 69 22 q41 31 41 95v277z" />
<glyph unicode="&#xb6;" horiz-adv-x="502" d="M274 650h209l4 -10l-32 -23l-92 -10v-497q0 -63 -14.5 -103.5t-52.5 -87.5q-17 -20 -49 -38q-27 -15 -36 -15q-23 0 -40.5 8t-35.5 22q-7 6 -7 17q0 6 5 14l14 18q8 8 17 0q17 -12 34 -17.5t32 -5.5q34 0 54 32q25 41 25 131v171l-67 -32q-3 -2 -16 -2q-52 0 -104 54 q-61 63 -61 149q0 48 17.5 89t48 70.5t72 47.5t75.5 18z" />
<glyph unicode="&#xb7;" horiz-adv-x="240" d="M120 217q-26 0 -42.5 16.5t-16.5 44.5q0 26 17 43t42 17q26 0 43 -17t17 -43q0 -27 -17 -44t-43 -17z" />
<glyph unicode="&#x2219;" horiz-adv-x="240" d="M120 217q-26 0 -42.5 16.5t-16.5 44.5q0 26 17 43t42 17q26 0 43 -17t17 -43q0 -27 -17 -44t-43 -17z" />
<glyph unicode="&#xb8;" horiz-adv-x="420" d="M379 100l14 -14q-36 -51 -86 -78q-37 -20 -65 -20q-92 0 -147.5 60.5t-55.5 150.5q0 102 62 174.5t152 72.5q58 0 100.5 -43.5t42.5 -95.5q0 -23 -3.5 -28.5t-23 -9.5t-109.5 -10t-147 -6q0 -102 54 -156q45 -45 109 -45q27 0 50 10.5t53 37.5zM119 289l174 3 q11 0 14.5 5.5t3.5 26.5q0 33 -22 59q-25 29 -62 29q-38 0 -70 -34.5t-38 -88.5zM319 505q-21 0 -33 12t-12 33q0 19 12.5 32.5t32.5 13.5q18 0 30.5 -13.5t12.5 -32.5q0 -20 -12 -32.5t-31 -12.5zM144 505q-20 0 -32.5 12.5t-12.5 32.5q0 19 12.5 32.5t32.5 13.5 q19 0 31.5 -13.5t12.5 -32.5q0 -20 -12.5 -32.5t-31.5 -12.5z" />
<glyph unicode="&#xb9;" horiz-adv-x="872" d="M694 202q31 0 48 24q21 30 21 93q0 64 -21.5 104t-60.5 40q-28 0 -48 -30.5t-20 -85.5q0 -67 22.5 -106t58.5 -39zM692 174q-69 0 -109.5 45.5t-40.5 107.5q0 79 50 125q42 39 97 39q63 0 104 -44t41 -110q0 -77 -46 -123q-40 -40 -96 -40zM478 335v-342h-22l-264 495 l-2 -161q0 -158 -15 -234q-10 -52 -32 -75q-14 -15 -30.5 -22.5t-34.5 -7.5t-31.5 10.5t-13.5 26.5q0 37 33 37l27 -3q30 0 43 41q19 62 19 249v141v14q0 30 -1.5 41t-9.5 25q-17 31 -95 31v23h152l240 -454l2 187q0 120 13 181q9 44 30 71t48 27q19 0 28.5 -10.5t9.5 -28.5 q0 -8 -5 -14t-25 -15q-31 -14 -46 -62q-18 -56 -18 -171zM566 120h252v-40h-252v40z" />
<glyph unicode="&#xba;" horiz-adv-x="451" d="M416 316l-24 -6q-18 47 -36 68q-33 38 -84 38q-74 0 -110 -51q-32 -45 -32 -120l182 9l2 -48l-184 9q0 -75 24 -126q33 -71 102 -71q36 0 63.5 17t43.5 55q6 14 14.5 21.5t21.5 7.5q15 0 23.5 -9.5t8.5 -23.5q0 -15 -5.5 -26.5t-20.5 -25.5q-55 -46 -144 -46 q-91 0 -154 58q-68 62 -68 165q0 101 62.5 168t164.5 67q37 0 68 -6.5t63 -18.5z" />
<glyph unicode="&#xbb;" horiz-adv-x="441" d="M231 36l-18 15l99 174l-99 176l18 14l73 -89l87 -101l-64 -73zM68 36l-18 15l99 174l-99 176l18 14l73 -89l87 -101l-64 -73z" />
<glyph unicode="&#xbc;" horiz-adv-x="255" d="M104 125v196q0 46 -9 54.5t-64 13.5v19q39 8 77.5 18t73.5 22v-332q0 -56 -5 -87.5t-23 -76.5q-24 -61 -70 -122q-34 -46 -56 -64q-10 -8 -20 -8q-7 0 -17 11t-10 26q0 13 13 18q27 9 40 16q18 10 30 26q17 23 25 67.5t11.5 97.5t3.5 105zM141 682q22 0 37 -16t15 -39 q0 -22 -15 -38t-37 -16q-21 0 -36.5 15.5t-15.5 38.5t15 39t37 16z" />
<glyph unicode="&#xbd;" horiz-adv-x="476" d="M40 172l25 4q19 -57 52 -96q52 -62 121 -62q57 0 90.5 35.5t33.5 93.5q0 44 -25 78.5t-104 72.5q-94 45 -123 76q-45 47 -45 107q0 77 55.5 130.5t150.5 53.5q19 0 43 -4t40 -9l38 -11l18 -135l-25 -3q-17 59 -40 87q-34 42 -96 42q-52 0 -80 -31.5t-28 -79.5 q0 -50 36 -85q28 -27 93 -56q79 -35 110 -61q61 -52 61 -133q0 -87 -63 -144t-159 -57q-28 0 -49 3.5t-46 11.5q-10 3 -32 12q-12 4 -23 9q-3 10 -13 67z" />
<glyph unicode="&#xbe;" horiz-adv-x="355" d="M38 134l23 6q13 -48 44 -83q35 -39 76 -39q30 0 50.5 19t20.5 55q0 31 -18.5 53.5t-59.5 40.5q-58 26 -84 50q-36 33 -36 79q0 54 42.5 92.5t106.5 38.5q26 0 46.5 -4.5t37.5 -12.5q7 -15 13.5 -46.5t8.5 -49.5l-24 -6q-22 47 -46.5 68t-53.5 21q-32 0 -49 -20t-17 -48 t27 -52q22 -19 60 -35q59 -24 88 -54q33 -34 33 -82q0 -64 -52 -103q-46 -34 -109 -34q-36 0 -67 11t-49 26q-4 10 -8 45t-4 64z" />
<glyph unicode="&#xbf;" horiz-adv-x="266" d="M181 448v-358q0 -43 10.5 -52.5t61.5 -14.5v-23h-221v23q50 5 60.5 14.5t10.5 52.5v231q0 45 -9 54t-59 14v19q40 9 71 17q40 11 75 23zM211 582q-21 0 -33 12t-12 33q0 19 12.5 32.5t32.5 13.5q18 0 30.5 -13.5t12.5 -32.5q0 -20 -12 -32.5t-31 -12.5zM58 582 q-20 0 -32.5 12.5t-12.5 32.5q0 19 12.5 32.5t32.5 13.5q19 0 31.5 -13.5t12.5 -32.5q0 -20 -12.5 -32.5t-31.5 -12.5z" />
<glyph unicode="&#xc0;" horiz-adv-x="685" d="M423 0v23l32 4q36 4 36 23q0 8 -5.5 25.5t-23.5 64.5l-40 107h-203l-50 -146q-9 -29 -9 -44q0 -27 44 -31l30 -3v-23h-214v23q49 5 65.5 20.5t42.5 81.5l206 531l23 9l71 -190l46 -126l44 -121l40 -109q24 -63 42.5 -79.5t64.5 -16.5v-23h-242zM232 285h177l-88 246z" />
<glyph unicode="&#xc1;" horiz-adv-x="583" d="M126 145v360q0 83 -13.5 102.5t-72.5 19.5v23h438l11 -146l-25 -3q-14 68 -36.5 92t-109.5 24h-69q-28 0 -33.5 -4.5t-5.5 -31.5l1 -200h108q115 0 173 -49q55 -46 55 -129q0 -60 -22 -97.5t-66 -63.5q-35 -21 -85 -31.5t-109 -10.5h-231v23q62 0 77 20t15 102zM304 31 q63 0 101 37q45 43 45 127q0 80 -45.5 118t-130.5 38h-64v-207q0 -72 16.5 -92.5t77.5 -20.5z" />
<glyph unicode="&#xc2;" horiz-adv-x="584" d="M40 650h266q51 0 86 -8.5t60 -26.5q52 -37 52 -110q0 -59 -47 -100q-35 -31 -84 -43q76 -13 121 -52q52 -46 52 -118q0 -53 -23.5 -90.5t-69.5 -63.5q-35 -19 -84.5 -28.5t-106.5 -9.5h-228v23q62 0 77 20t15 102v360q0 83 -13.5 102.5t-72.5 19.5v23zM208 589v-222h63 q144 0 144 127q0 55 -27 86q-35 41 -116 41q-22 0 -35 -2t-21 -4.5t-8 -25.5zM266 338h-58v-218q0 -52 16.5 -70.5t69.5 -18.5q68 0 109 34q46 38 46 114q0 78 -51 118.5t-132 40.5z" />
<glyph unicode="&#xc3;" horiz-adv-x="510" d="M126 145v360q0 83 -13.5 102.5t-72.5 19.5v23h437l11 -146l-25 -3q-14 68 -36.5 92t-109.5 24h-67q-29 0 -34.5 -4.5t-5.5 -31.5v-436q0 -83 16.5 -102.5t88.5 -19.5v-23h-279v23q61 0 75.5 19.5t14.5 102.5z" />
<glyph unicode="&#xc4;" horiz-adv-x="649" d="M472 0h-308q-53 0 -71.5 -19.5t-36.5 -92.5l-16 -66h-24v176q0 18 6 24t22 6h25q14 0 19 4t18 26q48 84 70 236q17 117 17 261q0 41 -9 51t-45 15l-45 6v23h523v-23q-61 0 -75.5 -19.5t-14.5 -102.5v-388q0 -63 7.5 -76t43.5 -13h21q14 0 20 -6t6 -25v-175h-24l-17 68 q-18 68 -40 89t-72 21zM186 33h196q37 0 49 13.5t12 61.5v437q0 54 -4.5 63t-33.5 9h-112q-38 0 -45 -4t-7 -25q0 -159 -13 -272q-17 -147 -56 -242q-7 -18 -7 -26q0 -15 21 -15z" />
<glyph unicode="&#xc5;" horiz-adv-x="554" d="M126 145v360q0 82 -14 102t-74 20v23h438l11 -146l-25 -3q-14 68 -36.5 92t-109.5 24h-76q-21 0 -25.5 -4.5t-4.5 -26.5v-228h101q64 0 77.5 11.5t21.5 68.5h25v-198h-25l-5 34q-5 25 -16 34q-15 13 -78 13h-101v-177q0 -83 25 -99q12 -8 37.5 -10t64.5 -2q50 0 80 6 t46 23q25 26 48 98l25 -3q-6 -35 -17 -84.5t-18 -72.5h-473v23q67 0 82.5 19.5t15.5 102.5z" />
<glyph unicode="&#xc6;" horiz-adv-x="942" d="M513 505v-149q53 0 75.5 7.5t46.5 30.5t53 85l39 88q22 52 49 75t61 23q27 0 41 -10.5t14 -25.5q0 -16 -10.5 -24.5t-26.5 -8.5h-31q-35 0 -63 -50l-53 -106q-19 -38 -50 -63q-19 -15 -45 -27q43 -18 67 -37q30 -23 53 -61q16 -26 35 -62l46 -86q24 -44 47.5 -60.5 t60.5 -20.5v-23h-87q-40 0 -68 25q-23 20 -45 67l-41 84q-10 21 -32 60q-32 57 -64 77q-25 15 -72 15v-183q0 -83 14 -102.5t76 -19.5v-23h-264v23q61 0 75.5 19.5t14.5 102.5v183q-47 0 -72 -15q-32 -19 -64 -77q-10 -17 -32 -61q-15 -28 -39.5 -79.5t-45.5 -70.5 q-27 -25 -69 -25h-87v23q38 4 59 19q25 18 49 62l55 102q15 28 26 46q23 38 50 58.5t70 36.5q-35 21 -45 29q-31 25 -50 64l-52 104q-29 52 -64 52h-31q-17 0 -27 7.5t-10 25.5q0 15 14 25.5t41 10.5q34 0 61 -23t49 -75l39 -87q29 -64 52.5 -86t47.5 -30t75 -8v149 q0 83 -14 102.5t-76 19.5v23h264v-23q-61 0 -75.5 -19.5t-14.5 -102.5z" />
<glyph unicode="&#xc7;" horiz-adv-x="513" d="M376 173q0 70 -37.5 116t-86.5 46q-14 0 -42 -4.5t-33 -4.5h-12q-15 0 -25 9t-10 20t10 20t25 9h12q11 0 39 -4.5t36 -4.5q40 0 70 30q34 34 34 89q0 67 -33.5 102.5t-83.5 35.5q-70 0 -107 -46q-27 -33 -46 -108h-26q5 22 11 79.5t7 72.5l70 20q20 5 55 10t50 5 q88 0 140.5 -43.5t52.5 -111.5q0 -35 -13.5 -61t-36.5 -43q-44 -31 -99 -46q79 -13 123 -51q55 -47 55 -128q0 -94 -78 -148q-69 -48 -168 -48q-46 0 -89.5 10.5t-72.5 31.5q-19 13 -30 34t-11 41q0 17 12 31t27 14q27 0 35 -26q17 -58 54 -82q32 -21 78 -21q53 0 92 31 q52 42 52 124z" />
<glyph unicode="&#xc8;" horiz-adv-x="757" d="M126 145v360q0 83 -14 102.5t-76 19.5v23h264v-23q-61 0 -75.5 -19.5t-14.5 -102.5v-347h6l314 380q11 13 14 20t3 16q0 28 -12.5 37.5t-52.5 15.5v23h239v-23q-61 0 -75.5 -19.5t-14.5 -102.5v-360q0 -83 14 -102.5t76 -19.5v-23h-264v23q61 0 75.5 19.5t14.5 102.5v354 h-4l-321 -378q-9 -11 -10.5 -17.5t-1.5 -27.5q0 -28 12.5 -37.5t52.5 -15.5v-23h-239v23q61 0 75.5 19.5t14.5 102.5z" />
<glyph unicode="&#xc9;" horiz-adv-x="757" d="M126 145v360q0 83 -14 102.5t-76 19.5v23h264v-23q-61 0 -75.5 -19.5t-14.5 -102.5v-347h6l314 380q11 13 14 20t3 16q0 28 -12.5 37.5t-52.5 15.5v23h239v-23q-61 0 -75.5 -19.5t-14.5 -102.5v-360q0 -83 14 -102.5t76 -19.5v-23h-264v23q61 0 75.5 19.5t14.5 102.5v354 h-4l-321 -378q-9 -11 -10.5 -17.5t-1.5 -27.5q0 -28 12.5 -37.5t52.5 -15.5v-23h-239v23q61 0 75.5 19.5t14.5 102.5zM378 673q-59 0 -96 21.5t-37 57.5q0 13 8 24.5t24 11.5q19 0 29 -15q7 -11 7 -25q0 -44 65 -44q34 0 49.5 10t15.5 34q0 14 8.5 27t27.5 13 q15 0 23.5 -11.5t8.5 -24.5q0 -37 -36.5 -58t-96.5 -21z" />
<glyph unicode="&#xca;" horiz-adv-x="651" d="M126 145v360q0 83 -14 102.5t-76 19.5v23h264v-23q-61 0 -75.5 -19.5t-14.5 -102.5v-149q61 0 85.5 7.5t48.5 30.5t53 85l39 88q22 52 49 75t61 23q27 0 41 -10.5t14 -25.5q0 -16 -10.5 -24.5t-26.5 -8.5h-31q-35 0 -63 -50l-53 -106q-19 -38 -50 -63q-19 -15 -45 -27 q43 -18 67 -37q30 -23 53 -61q16 -26 35 -62l47 -86q23 -44 46.5 -60.5t60.5 -20.5v-23h-87q-40 0 -68 25q-23 20 -45 67l-41 84q-10 21 -32 60q-32 59 -62 75.5t-86 16.5v-183q0 -83 14 -102.5t76 -19.5v-23h-264v23q61 0 75.5 19.5t14.5 102.5z" />
<glyph unicode="&#xcb;" horiz-adv-x="640" d="M114 650h490v-23q-61 0 -75.5 -19.5t-14.5 -102.5v-360q0 -83 14 -102.5t76 -19.5v-23h-264v23q61 0 75.5 19.5t14.5 102.5v402q0 52 -4.5 61t-33.5 9h-91q-40 0 -47.5 -4t-7.5 -23q0 -210 -26.5 -348.5t-82.5 -208.5q-19 -24 -39 -36.5t-35 -12.5q-9 0 -26 4t-32 7v20 q38 12 66 38q20 18 43 55q35 50 62.5 179.5t27.5 271.5q0 42 -16 55t-74 13v23z" />
<glyph unicode="&#xcc;" horiz-adv-x="893" d="M40 650h165l242 -515l238 515h165v-23q-64 0 -77 -18.5t-13 -103.5l8 -360q0 -85 14 -103.5t80 -18.5v-23h-264v23q61 0 73.5 18.5t12.5 103.5l-4 403h-4l-245 -537h-25l-231 523l-12 -279q0 -32 -0.5 -67t-1.5 -73q0 -20 3 -44.5t23.5 -36t69.5 -11.5v-23h-235v23 q42 4 60.5 14.5t23.5 37.5q9 46 13 93.5t4 96.5l11 210q0 87 -4 106q-10 46 -90 46v23z" />
<glyph unicode="&#xcd;" horiz-adv-x="767" d="M210 363h347v142q0 82 -14 102t-74 20v23h264v-23q-62 0 -77 -20t-15 -102v-360q0 -83 14 -102.5t76 -19.5v-23h-270v23q66 0 81 19.5t15 102.5v178h-347v-178q0 -83 14 -102.5t76 -19.5v-23h-264v23q61 0 75.5 19.5t14.5 102.5v360q0 83 -14.5 102.5t-79.5 19.5v23h264 v-23q-58 0 -72 -20t-14 -102v-142z" />
<glyph unicode="&#xce;" horiz-adv-x="745" d="M384 665q133 0 225.5 -92.5t92.5 -238.5q0 -154 -95.5 -251.5t-240.5 -97.5q-141 0 -232 95t-91 238q0 136 87 236q97 111 254 111zM605 297q0 157 -68.5 246t-178.5 89q-93 0 -153 -72q-65 -78 -65 -213q0 -146 68.5 -237.5t178.5 -91.5q95 0 154 69q64 75 64 210z" />
<glyph unicode="&#xcf;" horiz-adv-x="760" d="M487 617h-214q-43 0 -53 -17.5t-10 -94.5v-360q0 -83 14 -102.5t76 -19.5v-23h-264v23q61 0 75.5 19.5t14.5 102.5v360q0 83 -14 102.5t-76 19.5v23h688v-23q-61 0 -75.5 -19.5t-14.5 -102.5v-360q0 -83 14 -102.5t76 -19.5v-23h-264v23q61 0 75.5 19.5t14.5 102.5v360 q0 78 -9.5 95t-53.5 17z" />
<glyph unicode="&#xd0;" horiz-adv-x="556" d="M206 589v-272q10 -4 30.5 -8t44.5 -4q60 0 97 32q49 42 49 131q0 80 -40.5 116.5t-119.5 36.5q-39 0 -50 -4t-11 -28zM206 287v-142q0 -83 16.5 -102.5t88.5 -19.5v-23h-277v23q61 0 75.5 19.5t14.5 102.5v360q0 83 -13.5 102.5t-71.5 19.5v23h251q53 0 94 -9.5t72 -32 t47.5 -56.5t16.5 -81q0 -87 -61 -142q-54 -49 -134 -59q-12 -1 -25.5 -1.5t-19.5 -0.5z" />
<glyph unicode="&#xd1;" horiz-adv-x="659" d="M619 488l-25 -2q-21 82 -70 116q-43 30 -122 30q-128 0 -197 -87q-63 -80 -63 -206q0 -147 70 -234t191 -87q80 0 130 40q44 35 83 119l25 -3l-24 -82q-16 -53 -27 -79q-55 -14 -104 -21t-84 -7q-176 0 -274 106q-85 92 -85 225q0 154 106.5 251.5t271.5 97.5 q56 0 111 -10q55 -13 69 -16q6 -40 10.5 -82.5t7.5 -68.5z" />
<glyph unicode="&#xd2;" horiz-adv-x="606" d="M346 617v-472q0 -83 16.5 -102.5t89.5 -19.5v-23h-292v23q70 0 86 19.5t16 102.5v472h-47q-61 0 -90 -8t-39.5 -21.5t-19 -34.5t-17.5 -54h-25q0 35 3 69q9 103 9 107h14q11 -17 20.5 -21t31.5 -4h410q16 0 23 2.5t24 22.5h14q0 -37 3 -80q0 -1 8 -93l-25 -3 q-14 69 -36 92q-12 14 -37.5 20t-72.5 6h-67z" />
<glyph unicode="&#xd3;" horiz-adv-x="654" d="M20 650h232v-24l-30 -4q-24 -3 -24 -20q0 -13 12 -39l152 -313l43 99l41 99q22 56 36 99q9 27 9 42q0 30 -46 34l-30 3v24h219v-24q-49 -5 -65 -20t-48 -84q-2 -5 -55 -124l-75 -168q-53 -121 -59 -133q-33 -72 -75 -103q-32 -24 -69 -24q-23 0 -43.5 9t-30 22.5 t-9.5 28.5q0 19 14 30q10 7 22 7q14 0 24 -10t25 -17.5t31 -7.5q35 0 63 49q23 40 23 64q0 12 -2 23t-11 30l-174 361q-19 39 -35 49.5t-65 17.5v24z" />
<glyph unicode="&#xd4;" horiz-adv-x="738" d="M238 650h262v-23q-49 0 -66.5 -12t-21.5 -50q101 0 180 -50q103 -65 103 -184t-102 -183q-81 -51 -180 -51q0 -47 17.5 -60.5t69.5 -13.5v-23h-262v23q52 0 70 14t18 60q-101 0 -180 50q-103 65 -103 184t101 183q80 51 180 51q-4 39 -21 50.5t-65 11.5v23zM607 331 q0 100 -67 158q-57 49 -129 49l-1 -33v-360l1 -21q74 0 129 48q67 58 67 159zM131 331q0 -100 66 -158q56 -49 130 -49l1 21v360l-1 33q-74 0 -130 -49q-66 -57 -66 -158z" />
<glyph unicode="&#xd5;" horiz-adv-x="647" d="M23 650h252v-23l-32 -4q-34 -4 -34 -18q0 -8 9 -23l117 -184l51 80l58 97q13 23 13 31q0 14 -32 17l-36 4v23h224v-23q-54 -5 -72 -16t-55 -58q-19 -24 -61 -84l-71 -103l88 -133l82 -127q32 -51 54.5 -64.5t75.5 -18.5v-23h-263v23l28 4q37 4 37 20q0 7 -8 20l-78 125 l-64 100l-62 -100l-69 -120q-10 -18 -10 -27t6.5 -13t24.5 -6l36 -3v-23h-227v23q44 4 66 13.5t43 36.5q14 18 63 89l110 162l-140 218q-33 52 -52.5 66t-71.5 19v23z" />
<glyph unicode="&#xd6;" horiz-adv-x="761" d="M568 0h-532v23q61 0 75.5 19.5t14.5 102.5v360q0 83 -14 102.5t-76 19.5v23h264v-23q-61 0 -75.5 -19.5t-14.5 -102.5v-360q0 -82 10 -97.5t65 -15.5h189q43 0 53 17.5t10 95.5v360q0 83 -14 102.5t-76 19.5v23h264v-23q-61 0 -75.5 -19.5t-14.5 -102.5v-360 q0 -83 6 -99.5t34 -16.5h31q27 0 27 -29v-163h-25l-19 69q-17 61 -38 77.5t-69 16.5z" />
<glyph unicode="&#xd7;" horiz-adv-x="677" d="M551 505v-360q0 -80 13.5 -98.5t76.5 -23.5v-23h-269v23q65 0 80 20t15 102v172l-98 -32q-15 -5 -33 -8.5t-36 -3.5q-120 0 -165 62q-13 18 -21 44.5t-8 69.5v56q0 82 -13 102t-69 20v23h256v-23q-61 0 -75.5 -19.5t-14.5 -102.5v-45q0 -71 37 -106.5t121 -35.5 q31 0 63 7.5t56 20.5v159q0 83 -14 102.5t-76 19.5v23h264v-23q-61 0 -75.5 -19.5t-14.5 -102.5z" />
<glyph unicode="&#xd8;" horiz-adv-x="970" d="M126 145v360q0 83 -14 102.5t-76 19.5v23h256v-23q-56 0 -69 -19.5t-13 -102.5v-360q0 -82 9 -97t54 -15h107q44 0 53.5 16t9.5 96v360q0 82 -13 102t-69 20v23h248v-23q-56 0 -69 -19.5t-13 -102.5v-360q0 -82 9 -97t54 -15h107q44 0 53.5 16t9.5 96v360q0 82 -13 102 t-69 20v23h256v-23q-61 0 -75.5 -19.5t-14.5 -102.5v-360q0 -83 14 -102.5t76 -19.5v-23h-898v23q61 0 75.5 19.5t14.5 102.5z" />
<glyph unicode="&#xd9;" horiz-adv-x="984" d="M126 145v360q0 83 -14 102.5t-76 19.5v23h256v-23q-56 0 -69 -19.5t-13 -102.5v-360q0 -82 9 -97t54 -15h107q44 0 53.5 16t9.5 96v360q0 82 -13 102t-69 20v23h248v-23q-56 0 -69 -19.5t-13 -102.5v-360q0 -82 9 -97t54 -15h107q44 0 53.5 16t9.5 96v360q0 82 -13 102 t-69 20v23h256v-23q-61 0 -75.5 -19.5t-14.5 -102.5v-360q0 -83 6 -99.5t34 -16.5h31q27 0 27 -29v-163h-25l-19 69q-17 61 -38 77.5t-69 16.5h-755v23q61 0 75.5 19.5t14.5 102.5z" />
<glyph unicode="&#xda;" horiz-adv-x="756" d="M296 145v432q0 30 -5 35t-36 5h-60q-88 0 -110 -23.5t-36 -91.5l-25 3l11 145h442v-24q-66 0 -81.5 -19.5t-15.5 -101.5v-124h110q115 0 173 -49q55 -46 55 -129q0 -60 -22 -97.5t-66 -63.5q-35 -21 -85 -31.5t-109 -10.5h-232v23q62 0 77 20t15 102zM380 351v-207 q0 -72 16.5 -92.5t79.5 -20.5q64 0 101 35q45 43 45 129q0 80 -45 118t-131 38h-66z" />
<glyph unicode="&#xdb;" horiz-adv-x="846" d="M126 145v360q0 83 -14.5 102.5t-77.5 19.5v23h273v-23q-66 0 -81.5 -19.5t-15.5 -102.5v-124h108q115 0 173 -49q55 -46 55 -129q0 -60 -22 -97.5t-66 -63.5q-35 -21 -85 -31.5t-109 -10.5h-230v23q62 0 77 20t15 102zM303 31q63 0 101 36q45 43 45 128q0 80 -45 118 t-131 38h-63v-207q0 -71 16.5 -92t76.5 -21zM720 505v-360q0 -83 14 -102.5t76 -19.5v-23h-264v23q61 0 75.5 19.5t14.5 102.5v360q0 83 -14 102.5t-76 19.5v23h264v-23q-61 0 -75.5 -19.5t-14.5 -102.5z" />
<glyph unicode="&#xdc;" horiz-adv-x="582" d="M126 145v360q0 83 -14.5 102.5t-77.5 19.5v23h273v-23q-66 0 -81.5 -19.5t-15.5 -102.5v-124h108q115 0 173 -49q55 -46 55 -129q0 -60 -22 -97.5t-66 -63.5q-35 -21 -85 -31.5t-109 -10.5h-230v23q62 0 77 20t15 102zM303 31q63 0 101 36q45 43 45 128q0 80 -45 118 t-131 38h-63v-207q0 -71 16.5 -92t76.5 -21z" />
<glyph unicode="&#xdd;" horiz-adv-x="646" d="M83 474l-25 2l8 75l10 73l102 27q54 14 96 14q174 0 261 -109q68 -85 68 -205q0 -144 -65 -235q-51 -72 -140 -106q-65 -25 -130 -25q-57 0 -112 17.5t-82 42.5q-21 19 -33 38.5t-12 38.5q0 20 10.5 32.5t28.5 12.5q26 0 37 -29q20 -57 65.5 -88.5t114.5 -31.5 q96 0 158.5 81t62.5 222l-328 -10v56l327 -10q0 145 -77 217q-62 58 -155 58q-103 0 -149 -63q-6 -8 -41 -95z" />
<glyph unicode="&#xde;" horiz-adv-x="1013" d="M36 650h264v-23q-61 0 -75.5 -19.5t-14.5 -102.5v-145h128q13 127 94 211q90 94 232 94q125 0 213 -91q93 -96 93 -240q0 -153 -93 -251t-227 -98q-138 0 -227 95t-89 238l1 8h-125v-181q0 -83 14 -102.5t76 -19.5v-23h-264v23q61 0 75.5 19.5t14.5 102.5v360 q0 83 -14 102.5t-76 19.5v23zM641 632q-88 0 -146 -70q-64 -77 -64 -215q0 -147 65.5 -238t172.5 -91q96 0 150 71.5t54 207.5q0 159 -64.5 247t-167.5 88z" />
<glyph unicode="&#xdf;" horiz-adv-x="637" d="M427 145v141h-40q-39 0 -61 -16q-17 -12 -41 -51q-18 -30 -39 -71l-31 -62q-29 -57 -60 -75q-22 -13 -66 -13l-69 -1v25q32 4 45 10t30 26q12 14 38 60l52 90q26 45 53 67q20 17 44 22q-75 24 -111 60q-45 45 -45 110q0 74 44 122q56 61 174 61h257v-23 q-61 0 -75.5 -19.5t-14.5 -102.5v-360q0 -83 14 -102.5t76 -19.5v-23h-264v23q61 0 75.5 19.5t14.5 102.5zM427 315v279q0 17 -9 22t-42 5q-97 0 -137 -62q-25 -39 -25 -94q0 -79 51 -117q45 -33 122 -33h40z" />
<glyph unicode="&#xe0;" horiz-adv-x="436" d="M431 37l-101 -49q-23 4 -38 25q-11 16 -17 40l-66 -42q-38 -23 -51 -23q-51 0 -85.5 35.5t-34.5 79.5q0 70 76 101l64 25q75 30 97 45v34q0 95 -82 95q-34 0 -55 -26q-16 -19 -26 -58q-5 -19 -23 -19q-13 0 -28 10.5t-15 23.5q0 18 34 43q26 20 59 36q49 25 95 33 q47 0 79 -24q23 -18 30.5 -42t7.5 -55v-225q0 -54 28 -54q17 0 43 13zM275 82v160l-51 -22l-50 -24q-52 -28 -52 -75q0 -38 20 -58t46 -20q18 0 41 10.5t46 28.5z" />
<glyph unicode="&#xe1;" horiz-adv-x="508" d="M275 446q84 0 139 -62t55 -155q0 -113 -71 -181q-63 -60 -147 -60q-99 0 -155.5 73t-56.5 186q0 156 84 265q28 36 57 62q23 21 49 38q18 12 42 23q30 14 59 23.5t44 15.5q29 11 46 25q10 8 14 8t4 -8q0 -33 -14.5 -57.5t-37 -37t-53.5 -21.5t-70.5 -15.5t-63.5 -22.5 t-37.5 -40t-21.5 -55t-14 -76l2 -2q26 32 59 51q41 23 88 23zM248 411q-22 0 -44.5 -10.5t-38.5 -30.5q-21 -25 -28.5 -46.5t-7.5 -72.5q0 -105 38 -169t99 -64q49 0 78 39q35 48 35 144q0 88 -34 147q-37 63 -97 63z" />
<glyph unicode="&#xe2;" horiz-adv-x="488" d="M103 106v223q0 56 -10.5 69.5t-56.5 13.5v22h242q68 0 106.5 -23.5t38.5 -72.5q0 -42 -34 -69q-24 -19 -63 -29q52 -8 88 -37.5t36 -77.5q0 -70 -71 -101q-54 -24 -143 -24h-204v23q48 0 59.5 13.5t11.5 69.5zM179 380v-133h65q44 0 68 18q28 21 28 64q0 39 -28.5 58 t-73.5 19q-42 0 -50.5 -4t-8.5 -22zM238 219h-59v-114q0 -46 19 -63q16 -14 52 -14q48 0 79.5 24t31.5 72q0 47 -34 71t-89 24z" />
<glyph unicode="&#xe3;" horiz-adv-x="398" d="M28 434h335l10 -125l-24 -3q-15 54 -32 77q-9 12 -26.5 16.5t-38.5 4.5h-45q-20 0 -24.5 -4.5t-4.5 -26.5v-283q0 -42 11.5 -52t64.5 -15v-23h-222v23q47 5 57.5 15t10.5 52v254q0 42 -10.5 52t-61.5 15v23z" />
<glyph unicode="&#xe4;" horiz-adv-x="497" d="M373 0h-250q-33 0 -43.5 -14t-21.5 -64l-10 -47h-24v129q0 16 4 20t17 4h23q9 0 18 15q16 28 35 101q10 39 17.5 107t7.5 108q0 27 -8 35t-40 13l-31 4v23h397v-23q-46 -4 -56.5 -14.5t-10.5 -52.5v-249q0 -44 6.5 -55.5t30.5 -11.5h17q21 0 21 -24v-129h-24l-10 47 q-11 49 -22 63.5t-43 14.5zM148 30h119q37 0 44.5 8.5t7.5 52.5v268q0 32 -7.5 38.5t-39.5 6.5h-33q-37 0 -45 -8t-8 -39q0 -76 -9 -140q-13 -88 -40 -163q-4 -8 -4 -15q0 -9 15 -9z" />
<glyph unicode="&#xe5;" horiz-adv-x="420" d="M379 100l14 -14q-36 -51 -86 -78q-37 -20 -65 -20q-92 0 -147.5 60.5t-55.5 150.5q0 102 62 174.5t152 72.5q58 0 100.5 -43.5t42.5 -95.5q0 -23 -3.5 -28.5t-23 -9.5t-109.5 -10t-147 -6q0 -102 54 -156q45 -45 109 -45q27 0 50 10.5t53 37.5zM119 289l174 3 q11 0 14.5 5.5t3.5 26.5q0 33 -22 59q-25 29 -62 29q-38 0 -70 -34.5t-38 -88.5z" />
<glyph unicode="&#xe6;" horiz-adv-x="737" d="M260 434h215v-23q-48 -5 -57.5 -14.5t-9.5 -52.5v-103q40 0 78 31q16 13 40 45q20 26 36 54q19 30 35 46q28 27 59 27q18 0 31 -8t13 -22t-9 -23t-29 -9h-23q-30 0 -57 -33q-9 -11 -32 -46q-10 -16 -25.5 -32t-31.5 -25v-4q18 -3 37 -16t32 -34l62 -94q28 -45 46 -60 t47 -15v-23h-57q-38 0 -57 9q-25 12 -46 48l-60 108q-16 33 -36 43t-53 10v-128q0 -43 10.5 -52.5t61.5 -14.5v-23h-222v23q53 5 63.5 14.5t10.5 52.5v128q-34 0 -53 -9.5t-36 -43.5l-60 -108q-20 -35 -43.5 -46t-59.5 -11h-57v23q28 0 46.5 15.5t46.5 59.5l62 94 q14 22 31.5 34t37.5 16v4q-15 9 -30.5 25t-26.5 32q-24 36 -31 45q-27 34 -58 34h-23q-38 0 -38 32q0 14 13 22t31 8q31 0 58 -26q17 -16 36 -47q14 -23 36 -53q26 -35 40 -46q20 -16 37.5 -23.5t40.5 -7.5v103q0 43 -10.5 52.5t-61.5 14.5v23z" />
<glyph unicode="&#xe7;" horiz-adv-x="412" d="M75 296l-23 4l12 101q34 22 68.5 33.5t70.5 11.5q70 0 112.5 -31t42.5 -81q0 -20 -6.5 -32.5t-18.5 -23.5q-8 -8 -29 -18t-49 -18q55 -9 86 -35q38 -31 38 -82q0 -63 -59 -102q-53 -35 -128 -35q-43 0 -79.5 12.5t-60.5 35.5q-12 12 -16.5 23.5t-4.5 22.5q0 16 9 27.5 t28 11.5q13 0 20 -6.5t12 -19.5q17 -42 41.5 -59.5t60.5 -17.5q41 0 64.5 28t23.5 70t-17 70q-20 34 -58 34q-5 0 -35 -5q-12 -2 -23 -2h-12q-29 0 -29 24q0 9 7.5 16.5t21.5 7.5h12q5 0 36 -5q12 -2 22 -2q27 0 43 20t16 53q0 43 -23 66t-60 23q-45 0 -75 -36 q-24 -29 -41 -84z" />
<glyph unicode="&#xe8;" horiz-adv-x="555" d="M455 344v-254q0 -43 12 -55t65 -12v-23h-216v23q44 5 53.5 15t9.5 52v218l-186 -211q-9 -11 -11 -13q-6 -8 -6 -16v-23q0 -13 22 -18l21 -4v-23h-196v23q52 0 64.5 11.5t12.5 55.5v254q0 43 -12 55t-65 12v23h216v-23q-44 -5 -53.5 -15t-9.5 -52v-219h4l187 219 q12 14 12 26v19q0 14 -21 18l-21 4v23h195v-23q-52 0 -64.5 -11.5t-12.5 -55.5z" />
<glyph unicode="&#xe9;" horiz-adv-x="555" d="M455 344v-254q0 -43 12 -55t65 -12v-23h-216v23q44 5 53.5 15t9.5 52v218l-186 -211q-9 -11 -11 -13q-6 -8 -6 -16v-23q0 -13 22 -18l21 -4v-23h-196v23q52 0 64.5 11.5t12.5 55.5v254q0 43 -12 55t-65 12v23h216v-23q-44 -5 -53.5 -15t-9.5 -52v-219h4l187 219 q12 14 12 26v19q0 14 -21 18l-21 4v23h195v-23q-52 0 -64.5 -11.5t-12.5 -55.5zM277 511q56 0 51 28l-5 19q-2 6 -2 10q0 10 3 15q8 13 27 13q17 0 27 -12t10 -29q0 -30 -30 -50.5t-81 -20.5q-52 0 -81.5 19.5t-29.5 51.5q0 17 10 29t28 12q29 0 29 -28q0 -4 -2 -10l-5 -19 q-5 -28 51 -28z" />
<glyph unicode="&#xea;" horiz-adv-x="510" d="M31 434h217v-23q-48 -5 -57.5 -14.5t-9.5 -52.5v-103q40 0 78 31q16 13 40 45q20 26 36 54q19 30 35 46q28 27 59 27q18 0 31 -8t13 -22t-9 -23t-29 -9h-23q-20 0 -36.5 -12.5t-51.5 -64.5q-11 -17 -26 -33t-32 -26v-4q19 -5 37 -16.5t32 -33.5l62 -94q28 -45 46 -60 t47 -15v-23h-57q-38 0 -57 9q-25 12 -46 47l-36 63q-2 3 -26 50q-14 29 -35 39t-52 10v-128q0 -43 10.5 -52.5t61.5 -14.5v-23h-224v23q53 5 63.5 14.5t10.5 52.5v254q0 43 -10.5 52.5t-61.5 14.5v23z" />
<glyph unicode="&#xeb;" horiz-adv-x="487" d="M91 434h378v-24q-51 -5 -61.5 -14.5t-10.5 -51.5v-254q0 -43 10.5 -52.5t61.5 -14.5v-23h-223v23q52 5 62.5 14.5t10.5 52.5v269q0 27 -6 35t-32 8h-46q-28 0 -34.5 -6.5t-6.5 -34.5q0 -137 -32 -233q-23 -69 -61 -112q-27 -28 -46 -28q-8 0 -25.5 4.5t-24.5 6.5v19 q36 15 65 48q25 28 41 64q21 48 32.5 110t11.5 114q0 33 -10 42t-54 14v24z" />
<glyph unicode="&#xec;" horiz-adv-x="667" d="M493 434h140v-23q-48 0 -59 -12t-11 -64l2 -236q0 -53 10 -64.5t59 -11.5v-23h-209v23q46 0 56 12t10 64l3 263l-176 -354h-17l-151 345l-12 -159q0 -29 -0.5 -57.5t-1.5 -56.5q1 -13 1 -18q2 -20 18 -29.5t52 -9.5v-23h-177v23q32 0 45 9t17.5 31t8 46.5t3.5 71.5l9 140 q0 67 -7 78.5t-54 11.5v23h134l146 -319z" />
<glyph unicode="&#xed;" horiz-adv-x="558" d="M178 246h202v98q0 42 -10 52t-58 15v23h212v-23q-47 -5 -56.5 -14.5t-9.5 -52.5v-254q0 -42 10 -52t58 -15v-23h-212v23q47 5 56.5 14.5t9.5 52.5v124h-202v-124q0 -42 10 -52.5t56 -14.5v-23h-212v23q47 5 57.5 15t10.5 52v254q0 42 -10.5 52t-59.5 15v23h212v-23 q-45 -5 -54.5 -14.5t-9.5 -52.5v-98z" />
<glyph unicode="&#xee;" horiz-adv-x="517" d="M272 18q51 0 81 41q34 47 34 143q0 89 -35 149q-38 65 -104 65q-51 0 -84.5 -48t-33.5 -126q0 -98 38.5 -161t103.5 -63zM261 -12q-100 0 -164 69q-58 63 -58 148q0 115 76 183q65 58 145 58q95 0 156.5 -63.5t61.5 -158.5q0 -110 -70 -176q-63 -60 -147 -60z" />
<glyph unicode="&#xef;" horiz-adv-x="558" d="M28 434h502v-23q-51 -5 -61.5 -14.5t-10.5 -52.5v-254q0 -43 10.5 -52.5t61.5 -14.5v-23h-217v23q48 5 57.5 14.5t9.5 52.5v264q0 33 -8 41t-38 8h-110q-31 0 -38.5 -7.5t-7.5 -41.5v-264q0 -42 10 -52.5t55 -14.5v-23h-213v23q49 5 59.5 15t10.5 52v254q0 43 -10.5 52.5 t-61.5 14.5v23z" />
<glyph unicode="&#xf0;" horiz-adv-x="528" d="M170 456v-72q58 30 115 56q14 6 32 6q79 0 128 -59q44 -53 44 -123q0 -112 -74 -187q-69 -69 -182 -89q-18 0 -34.5 6t-28.5 14v-148q0 -43 14.5 -55t75.5 -12v-23h-240v23q51 5 61.5 14.5t10.5 52.5v469q0 45 -10 55t-62 10v19q32 7 49 12zM170 354v-279 q17 -19 41.5 -29.5t58.5 -10.5q51 0 90 41q47 49 47 133q0 88 -38.5 135t-103.5 47q-20 0 -46 -10t-49 -27z" />
<glyph unicode="&#xf1;" horiz-adv-x="417" d="M394 109l13 -13q-32 -48 -75.5 -78t-85.5 -30q-92 0 -149.5 62.5t-57.5 148.5q0 55 24 103.5t65.5 82t92.5 49.5q39 12 72 12q22 0 47 -7t41 -20q10 -9 10 -22q0 -16 -11 -30t-22 -14q-7 0 -15 7q-27 24 -52.5 33.5t-51.5 9.5q-44 0 -78 -36q-42 -44 -42 -123 q0 -100 59 -152q44 -39 97 -39q34 0 55.5 10t63.5 46z" />
<glyph unicode="&#xf2;" horiz-adv-x="452" d="M265 403v-313q0 -43 10.5 -52.5t60.5 -14.5v-23h-222v23q52 5 62.5 14.5t10.5 52.5v313h-38q-23 0 -41 -4.5t-28 -16.5q-20 -24 -31 -78l-24 3l8 127h386l8 -126l-24 -3q-11 53 -31 77q-10 12 -27 16.5t-42 4.5h-38z" />
<glyph unicode="&#xf3;" horiz-adv-x="455" d="M203 434v-23l-32 -4q-17 -3 -17 -18q0 -10 8 -29l96 -251q16 38 49 134q26 74 40 120q6 17 6 26q0 14 -22 17l-37 5v23h176v-23q-38 -7 -49.5 -17.5t-33.5 -55.5q-14 -29 -45 -107l-72 -181q-34 -86 -50 -123q-36 -83 -61 -119q-35 -50 -69 -50q-17 0 -30 15t-13 32 q0 25 28.5 28.5t59.5 32.5t51 69q5 10 15 35q7 18 10 27.5t3 12.5t-4 17l-62 166l-59 144q-20 48 -31 57q-14 12 -60 17v23h205z" />
<glyph unicode="&#xf4;" horiz-adv-x="720" d="M399 375v-325q14 -13 34.5 -21.5t40.5 -8.5q46 0 74 30q42 45 42 150q0 98 -26 150q-32 64 -99 64q-21 0 -36 -10t-30 -29zM399 710v-291q44 27 88 27q83 0 138.5 -64.5t55.5 -156.5q0 -106 -58.5 -171.5t-141.5 -65.5q-22 0 -42.5 4.5t-39.5 14.5v-141q0 -43 12 -55 t65 -12v-23h-232v23q52 0 64.5 11.5t12.5 55.5v143q-20 -10 -44 -15.5t-43 -5.5q-78 0 -135 62q-60 65 -60 160q0 103 56.5 169.5t147.5 66.5q19 0 40.5 -6.5t37.5 -20.5v171q0 45 -11 55t-67 10v20q38 6 79 15.5t77 19.5zM321 50v325q-13 18 -33 28.5t-43 10.5 q-58 0 -89 -56q-26 -48 -26 -118q0 -128 46 -182q32 -38 81 -38q18 0 31 6.5t33 23.5z" />
<glyph unicode="&#xf5;" horiz-adv-x="469" d="M16 434h202v-23l-22 -4q-19 -3 -19 -15q0 -7 9 -21l64 -97l32 51q18 28 24 39q13 22 13 31q0 6 -4.5 9t-16.5 5l-19 2v23h182v-23q-49 0 -69 -10.5t-52 -51.5q-17 -21 -39 -51t-35 -50l101 -156q28 -43 43.5 -52.5t67.5 -16.5v-23h-218v23l23 4q23 5 23 16q0 8 -9 22 l-75 116l-68 -107q-15 -26 -15 -34q0 -10 19 -13l30 -4v-23h-183v23q51 6 66.5 15t52.5 58l81 111l-89 138q-26 41 -40 50.5t-60 15.5v23z" />
<glyph unicode="&#xf6;" horiz-adv-x="567" d="M378 80v264q0 42 -10.5 52t-58.5 15v23h213v-23q-47 -5 -56.5 -14.5t-9.5 -52.5v-254q0 -43 6.5 -54t26.5 -11h23q20 0 20 -22v-137h-26l-8 38q-11 56 -24 73q-18 23 -62 23h-383v23q50 5 60.5 14.5t10.5 52.5v254q0 43 -10.5 52.5t-60.5 14.5v23h208v-23 q-42 -5 -50.5 -14.5t-8.5 -52.5v-264q0 -34 8 -42t38 -8h108q30 0 38 8t8 42z" />
<glyph unicode="&#xf7;" horiz-adv-x="510" d="M410 344v-254q0 -43 10.5 -52.5t61.5 -14.5v-23h-227v23q52 0 64.5 11.5t12.5 55.5v107q-26 -5 -53.5 -9.5t-48.5 -4.5q-42 0 -69 6.5t-48 24.5q-33 29 -33 89v41q0 42 -10 52.5t-57 14.5v23h207v-23q-43 -5 -52.5 -15t-9.5 -52v-49q0 -45 23 -63.5t67 -18.5q23 0 43.5 2 t40.5 8v121q0 42 -9 52t-49 15v23h208v-23q-51 -5 -61.5 -14.5t-10.5 -52.5z" />
<glyph unicode="&#xf8;" horiz-adv-x="830" d="M100 90v254q0 44 -10 53t-62 14v23h217v-23q-47 -5 -57 -14.5t-10 -52.5v-265q0 -33 7.5 -40.5t40.5 -7.5h102q33 0 40.5 7.5t7.5 40.5v265q0 43 -10 52.5t-57 14.5v23h212v-23q-47 -5 -57 -14.5t-10 -52.5v-265q0 -33 7.5 -40.5t40.5 -7.5h102q33 0 40.5 7.5t7.5 40.5 v265q0 43 -10 52.5t-57 14.5v23h214v-23q-48 -4 -58.5 -14t-10.5 -53v-254q0 -43 10.5 -52.5t61.5 -14.5v-23h-774v23q51 5 61.5 14.5t10.5 52.5z" />
<glyph unicode="&#xf9;" horiz-adv-x="841" d="M100 90v254q0 44 -10 53t-62 14v23h217v-23q-47 -5 -57 -14.5t-10 -52.5v-265q0 -33 7.5 -40.5t40.5 -7.5h102q33 0 40.5 7.5t7.5 40.5v265q0 43 -10 52.5t-57 14.5v23h212v-23q-47 -5 -57 -14.5t-10 -52.5v-265q0 -33 7.5 -40.5t40.5 -7.5h102q33 0 40.5 7.5t7.5 40.5 v265q0 43 -10 52.5t-57 14.5v23h214v-23q-48 -4 -58.5 -14t-10.5 -53v-254q0 -43 6.5 -54t26.5 -11h23q20 0 20 -22v-137h-26l-8 38q-11 56 -24 73q-18 23 -62 23h-658v23q51 5 61.5 14.5t10.5 52.5z" />
<glyph unicode="&#xfa;" horiz-adv-x="587" d="M290 344v-85h81q84 0 132 -28.5t48 -92.5q0 -63 -47 -98q-53 -40 -159 -40h-204v23q52 5 62.5 14.5t10.5 52.5v268q0 33 -4.5 39.5t-33.5 6.5h-35q-18 0 -34 -4.5t-24.5 -17t-17 -36t-15.5 -59.5l-25 3l11 144h324v-23q-49 -5 -59.5 -15t-10.5 -52zM290 231v-164 q0 -24 11.5 -31.5t43.5 -7.5q118 0 118 108q0 52 -33.5 73.5t-97.5 21.5h-42z" />
<glyph unicode="&#xfb;" horiz-adv-x="699" d="M521 90v254q0 41 -11.5 51.5t-61.5 14.5v24h223v-24q-51 -5 -61.5 -14.5t-10.5 -51.5v-254q0 -43 10.5 -52.5t61.5 -14.5v-23h-221v23q50 5 60.5 14.5t10.5 52.5zM176 344v-85h81q84 0 132 -28.5t48 -92.5q0 -63 -47 -98q-53 -40 -159 -40h-204v23q52 5 62.5 14.5 t10.5 52.5v254q0 42 -10.5 52t-59.5 15v23h216v-23q-49 -5 -59.5 -15t-10.5 -52zM176 231v-164q0 -24 11.5 -31.5t43.5 -7.5q118 0 118 108q0 52 -33.5 73.5t-97.5 21.5h-42z" />
<glyph unicode="&#xfc;" horiz-adv-x="476" d="M179 344v-85h81q84 0 132 -28.5t48 -92.5q0 -63 -47 -98q-53 -40 -159 -40h-204v23q52 5 62.5 14.5t10.5 52.5v254q0 42 -10.5 52t-59.5 15v23h216v-23q-49 -5 -59.5 -15t-10.5 -52zM179 231v-164q0 -24 11.5 -31.5t43.5 -7.5q118 0 118 108q0 53 -33 74t-97 21h-43z" />
<glyph unicode="&#xfd;" horiz-adv-x="449" d="M35 302l18 111q39 17 69 25t74 8q98 0 156 -60t58 -160q0 -105 -67.5 -171.5t-160.5 -66.5q-95 0 -140 48q-21 24 -21 45q0 15 10 27.5t29 12.5q12 0 18.5 -6.5t11.5 -19.5q17 -42 41.5 -59.5t60.5 -17.5q69 0 102 66q26 52 26 131l-187 -9l2 48l184 -9q0 74 -31 119 q-36 52 -104 52q-53 0 -85 -38q-18 -22 -41 -80z" />
<glyph unicode="&#xfe;" horiz-adv-x="743" d="M498 18q51 0 81 41q34 47 34 143q0 89 -35 149q-38 65 -104 65q-51 0 -84.5 -48t-33.5 -126q0 -98 38.5 -161t103.5 -63zM26 411v23h218v-23q-48 -5 -58.5 -15t-10.5 -52v-107h92q10 100 83 159q62 50 136 50q95 0 156.5 -63.5t61.5 -158.5q0 -110 -70 -176 q-63 -60 -147 -60q-100 0 -164 69q-58 63 -58 148h-90v-115q0 -43 10.5 -52.5t61.5 -14.5v-23h-218v23q50 5 60.5 14.5t10.5 52.5v254q0 42 -11 52.5t-63 14.5z" />
<glyph unicode="&#xff;" horiz-adv-x="500" d="M322 220v158q0 21 -6 25t-41 4q-46 0 -75 -23t-29 -70q0 -50 40 -76q29 -18 75 -18h36zM322 90v103h-35q-46 0 -67 -28q-11 -15 -25 -46q-10 -22 -23 -55.5t-32 -48.5t-45 -15h-75v23q23 3 32 6t20 14q22 22 44 75q13 32 28 52q19 24 43 33q-46 13 -71 39q-28 29 -28 71 q0 60 42 90.5t114 30.5h220v-23q-44 0 -54 -11t-10 -56v-254q0 -44 10.5 -55.5t56.5 -11.5v-23h-210v23q44 0 54.5 11.5t10.5 55.5z" />
<glyph unicode="&#x152;" horiz-adv-x="969" d="M210 363h305v142q0 82 -14 102t-74 20v23h264v-23q-62 0 -77 -20t-15 -102v-142h84q123 0 186.5 -47t63.5 -126q0 -54 -22 -89.5t-66 -60.5q-37 -21 -85 -30.5t-109 -9.5h-228v23q62 0 77 20t15 102v184h-305v-184q0 -83 14 -102.5t76 -19.5v-23h-264v23q61 0 75.5 19.5 t14.5 102.5v360q0 83 -14.5 102.5t-79.5 19.5v23h264v-23q-58 0 -72 -20t-14 -102v-142zM653 329h-54v-186q0 -71 16.5 -91.5t76.5 -20.5q66 0 102 32q42 37 42 114q0 76 -48.5 114t-134.5 38z" />
<glyph unicode="&#x153;" horiz-adv-x="744" d="M178 246h202v98q0 42 -10 52t-58 15v23h212v-23q-47 -5 -56.5 -14.5t-9.5 -52.5v-98h70q84 0 129 -26q51 -30 51 -92q0 -56 -43 -89q-51 -39 -151 -39h-200v23q47 5 56.5 14.5t9.5 52.5v126h-202v-126q0 -42 10 -52.5t56 -14.5v-23h-212v23q47 5 57.5 15t10.5 52v254 q0 42 -10.5 52t-59.5 15v23h212v-23q-45 -5 -54.5 -14.5t-9.5 -52.5v-98zM458 216v-149q0 -27 8 -33t50 -6q53 0 79 26t26 73q0 49 -36 71q-29 18 -79 18h-48z" />
<glyph unicode="&#x178;" horiz-adv-x="554" d="M378 80v264q0 42 -10.5 52t-58.5 15v23h213v-23q-47 -5 -56.5 -14.5t-9.5 -52.5v-254q0 -42 9.5 -52t53.5 -15v-23h-155q-26 0 -37.5 -6t-17.5 -25.5t-11 -48.5l-8 -54h-24l-8 54q-3 20 -9.5 43.5t-19 30t-37.5 6.5h-160v23q47 5 57.5 15t10.5 52v254q0 43 -10.5 52.5 t-60.5 14.5v23h208v-23q-42 -5 -50.5 -14.5t-8.5 -52.5v-264q0 -34 8 -42t38 -8h108q30 0 38 8t8 42z" />
<glyph unicode="&#x2c6;" horiz-adv-x="617" d="M539 176h-56l-176 380l-176 -380h-52l209 448h42z" />
<glyph unicode="&#x2dc;" horiz-adv-x="230" d="M226 205l30 -26q-27 -50 -65.5 -78.5t-80.5 -28.5q-37 0 -74 15l-60 30q-24 12 -46 18.5t-43 6.5q-60 0 -111 -82l-31 27q41 64 86 88q32 17 72 17q44 0 117 -37q29 -14 53 -22t44 -8q30 0 56 19t53 61z" />
<glyph unicode="&#x2000;" horiz-adv-x="401" />
<glyph unicode="&#x2001;" horiz-adv-x="803" />
<glyph unicode="&#x2002;" horiz-adv-x="401" />
<glyph unicode="&#x2003;" horiz-adv-x="803" />
<glyph unicode="&#x2004;" horiz-adv-x="267" />
<glyph unicode="&#x2005;" horiz-adv-x="200" />
<glyph unicode="&#x2006;" horiz-adv-x="133" />
<glyph unicode="&#x2007;" horiz-adv-x="133" />
<glyph unicode="&#x2008;" horiz-adv-x="100" />
<glyph unicode="&#x2009;" horiz-adv-x="160" />
<glyph unicode="&#x200a;" horiz-adv-x="44" />
<glyph unicode="&#x2010;" horiz-adv-x="365" d="M60 255h245v-57h-245v57z" />
<glyph unicode="&#x2011;" horiz-adv-x="365" d="M60 255h245v-57h-245v57z" />
<glyph unicode="&#x2013;" horiz-adv-x="500" d="M50 253h400v-53h-400v53z" />
<glyph unicode="&#x2014;" horiz-adv-x="1000" d="M50 253h900v-53h-900v53z" />
<glyph unicode="&#x2018;" horiz-adv-x="245" d="M151 469q-38 0 -68 29q-33 32 -33 77q0 53 43 93q37 34 93 49l9 -19q-42 -20 -61 -40q-24 -25 -24 -59q0 -31 21 -50q18 -16 49 -23q13 -2 13 -18q0 -18 -14 -28.5t-28 -10.5z" />
<glyph unicode="&#x2019;" horiz-adv-x="245" d="M94 710q38 0 69.5 -30.5t31.5 -75.5q0 -53 -43 -93q-37 -34 -93 -49l-9 19q42 20 61 40q24 25 24 59q0 31 -19.5 48.5t-50.5 24.5q-13 2 -13 18q0 18 14 28.5t28 10.5z" />
<glyph unicode="&#x201a;" horiz-adv-x="243" d="M58 -128l-10 21q41 22 61 46.5t20 56.5q0 29 -18.5 49.5t-39.5 25t-21 24.5q0 18 15 31t34 13q33 0 62 -30q34 -35 34 -85q0 -56 -44 -98q-37 -35 -93 -54z" />
<glyph unicode="&#x201c;" horiz-adv-x="433" d="M339 469q-38 0 -68 29q-33 32 -33 77q0 53 43 93q37 34 93 49l9 -19q-42 -20 -61 -40q-24 -25 -24 -59q0 -31 21 -50q18 -16 49 -23q13 -2 13 -18q0 -18 -14 -28.5t-28 -10.5zM151 469q-38 0 -68 29q-33 32 -33 77q0 53 43 93q37 34 93 49l9 -19q-42 -20 -61 -40 q-24 -25 -24 -59q0 -31 21 -50q18 -16 49 -23q13 -2 13 -18q0 -18 -14 -28.5t-28 -10.5z" />
<glyph unicode="&#x201d;" horiz-adv-x="433" d="M282 710q38 0 69.5 -30.5t31.5 -75.5q0 -53 -43 -93q-37 -34 -93 -49l-9 19q42 20 61 40q24 25 24 59q0 31 -19.5 48.5t-50.5 24.5q-13 2 -13 18q0 18 14 28.5t28 10.5zM94 710q38 0 69.5 -30.5t31.5 -75.5q0 -53 -43 -93q-37 -34 -93 -49l-9 19q42 20 61 40q24 25 24 59 q0 31 -19.5 48.5t-50.5 24.5q-13 2 -13 18q0 18 14 28.5t28 10.5z" />
<glyph unicode="&#x201e;" horiz-adv-x="428" d="M58 -128l-10 21q41 22 61 46.5t20 56.5q0 29 -18.5 49.5t-39.5 25t-21 24.5q0 18 15 31t34 13q33 0 62 -30q34 -35 34 -85q0 -56 -44 -98q-37 -35 -93 -54zM243 -128l-10 21q41 22 61 46.5t20 56.5q0 29 -18.5 49.5t-39.5 25t-21 24.5q0 18 15 31t34 13q33 0 62 -30 q34 -35 34 -85q0 -56 -44 -98q-37 -35 -93 -54z" />
<glyph unicode="&#x2022;" horiz-adv-x="294" d="M148 437q41 0 71 -31t30 -74q0 -44 -29.5 -74.5t-71.5 -30.5q-44 0 -73.5 30.5t-29.5 74.5q0 43 30 74t73 31z" />
<glyph unicode="&#x2026;" horiz-adv-x="1000" d="M500 -12q-24 0 -40.5 16.5t-16.5 42.5q0 25 16 42t41 17t41.5 -16.5t16.5 -42.5q0 -27 -16 -43t-42 -16zM833 -12q-24 0 -40.5 16.5t-16.5 42.5q0 25 16 42t41 17t41.5 -16.5t16.5 -42.5q0 -27 -16 -43t-42 -16zM167 -12q-24 0 -40.5 16.5t-16.5 42.5q0 25 16 42t41 17 t41.5 -16.5t16.5 -42.5q0 -27 -16 -43t-42 -16z" />
<glyph unicode="&#x202f;" horiz-adv-x="160" />
<glyph unicode="&#x2039;" horiz-adv-x="278" d="M228 51l-18 -15q-105 130 -160 189q58 66 64 74l96 116l18 -14l-99 -176z" />
<glyph unicode="&#x203a;" horiz-adv-x="278" d="M68 36l-18 15l99 174l-99 176l18 14l73 -89l87 -101l-64 -73z" />
<glyph unicode="&#x205f;" horiz-adv-x="200" />
<glyph unicode="&#x2122;" horiz-adv-x="820" d="M211 628v-209q0 -38 8 -47t46 -9v-19h-162v19q36 0 44 9t8 47v209h-32q-21 0 -32.5 -4t-17.5 -11q-11 -11 -20 -45h-17l6 93h12q6 -8 10.5 -9.5t16.5 -1.5h210q14 0 25 11h12l6 -92l-18 -1q-8 28 -9 30q-5 12 -11 18q-11 12 -52 12h-33zM676 650h103v-19q-29 0 -36 -8 t-7 -44l4 -164q0 -35 6.5 -43.5t37.5 -8.5v-19h-143v19q31 0 37 8t6 44l-2 187l-120 -252h-13l-115 244l-6 -130v-77q3 -24 46 -24v-19h-126v19q24 0 33.5 5t12.5 26t5 41t2 34l5 100q0 44 -6 53t-40 9v19h104l108 -221z" />
</font>
</defs>
</svg>
